<?xml version="1.0" encoding="UTF-8" standalone="no"?>
<svg xmlns:rdf="http://www.w3.org/1999/02/22-rdf-syntax-ns#" xmlns="http://www.w3.org/2000/svg" xml:space="preserve" height="146.38" viewBox="0 0 146.375 146.375" width="146.38" version="1.1" xmlns:cc="http://creativecommons.org/ns#" xmlns:dc="http://purl.org/dc/elements/1.1/"><g transform="matrix(1.25 0 0 -1.25 -52.188 605.06)"><g transform="translate(.85164 .85164)"><circle transform="scale(1,-1)" cy="-424.8" cx="99.392" r="57.012" fill="#fff"/><g><path d="m72.188 0c-39.868 0-72.188 32.32-72.188 72.188 0 39.869 32.32 72.188 72.188 72.188s72.188-32.319 72.188-72.188c0-39.868-32.32-72.188-72.192-72.188zm0 1.918c38.928 0 70.484 31.555 70.484 70.482s-31.557 70.484-70.484 70.484c-38.928 0-70.484-31.557-70.484-70.484 0-38.928 31.557-70.482 70.484-70.482zm0 1.6309c-37.948 0-68.711 30.763-68.711 68.711s30.763 68.709 68.711 68.709 68.711-30.761 68.711-68.709-30.763-68.711-68.711-68.711zm0 19.875c26.97 0 48.836 21.865 48.836 48.836 0 26.97-21.866 48.834-48.836 48.834-26.971 0-48.836-21.864-48.836-48.834 0-26.971 21.865-48.836 48.836-48.836z" transform="matrix(.8 0 0 -.8 41.75 482.45)" fill="#4f2d8b"/><path d="m37.693 37.893v68.777h68.777v-68.777h-68.777zm23.691 70.525c-0.315 0-0.56234 0.086-0.74609 0.25976-0.18375 0.17375-0.27539 0.38618-0.27539 0.63868 0 0.24875 0.07672 0.43765 0.23047 0.5664 0.15375 0.13 0.41023 0.2336 0.77148 0.3086 0.19375 0.04 0.32578 0.0839 0.39453 0.1289 0.0675 0.0463 0.10156 0.10961 0.10156 0.19336 0 0.0812-0.03828 0.15219-0.11328 0.21094-0.075 0.0588-0.18734 0.0879-0.33984 0.0879-0.315 0-0.50812-0.13148-0.57812-0.39648l-0.61523 0.13867c0.065 0.26125 0.20055 0.45734 0.4043 0.58984 0.205 0.1325 0.45219 0.19922 0.74219 0.19922 0.38875 0 0.68141-0.0937 0.87891-0.28125 0.1975-0.1875 0.29688-0.40977 0.29688-0.66602 0-0.16375-0.04617-0.31086-0.13867-0.44336-0.0925-0.13249-0.20484-0.22906-0.33984-0.28906-0.13375-0.0588-0.34602-0.11703-0.63477-0.17578-0.1725-0.035-0.28523-0.0768-0.33398-0.12305-0.05-0.0475-0.07422-0.10437-0.07422-0.17187 0-0.17125 0.13203-0.25586 0.39453-0.25586 0.24625 0 0.40812 0.11219 0.48438 0.33594l0.56445-0.18946c-0.15875-0.445-0.51797-0.66601-1.0742-0.66601zm15.674 0c-0.315 0-0.56359 0.086-0.74609 0.25976-0.18375 0.17375-0.27734 0.38618-0.27734 0.63868 0 0.24875 0.07867 0.43765 0.23242 0.5664 0.15375 0.13 0.41023 0.2336 0.77148 0.3086 0.19375 0.04 0.32383 0.0839 0.39258 0.1289 0.0675 0.0463 0.10156 0.10961 0.10156 0.19336 0 0.0812-0.03758 0.15219-0.11133 0.21094-0.075 0.0588-0.1893 0.0879-0.3418 0.0879-0.315 0-0.50742-0.13148-0.57617-0.39648l-0.61523 0.13867c0.065 0.26125 0.1993 0.45734 0.4043 0.58984 0.20375 0.1325 0.45094 0.19922 0.74219 0.19922 0.3875 0 0.67945-0.0937 0.87695-0.28125 0.1975-0.1875 0.29688-0.40977 0.29688-0.66602 0-0.16375-0.04617-0.31086-0.13867-0.44336-0.09125-0.13249-0.20484-0.22906-0.33984-0.28906-0.13375-0.0588-0.34602-0.11703-0.63477-0.17578-0.1725-0.035-0.28328-0.0768-0.33203-0.12305-0.05-0.0475-0.07422-0.10437-0.07422-0.17187 0-0.17125 0.13008-0.25586 0.39258-0.25586 0.24625 0 0.40812 0.11219 0.48438 0.33594l0.56445-0.18946c-0.15875-0.445-0.51602-0.66601-1.0723-0.66601zm-19.414 0.043v2.8379h2.0293v-0.56055h-1.3516v-0.62109h1.0625v-0.53321h-1.0625v-0.58203h1.3516v-0.54101h-2.0293zm5.4883 0v0.56054h0.70703v2.2774h0.67383v-2.2774h0.70312v-0.56054h-2.084zm3.2188 0-0.9082 2.8379h0.58203l0.17773-0.58399h0.91797l0.17383 0.58399h0.71484l-0.88867-2.8379h-0.76953zm2.3906 0v2.8379h1.3223c0.3625 0 0.62391-0.0767 0.78516-0.23047 0.16-0.155 0.24024-0.34023 0.24024-0.55274 0-0.15499-0.04969-0.29843-0.14844-0.42968-0.0975-0.1325-0.24391-0.21867-0.44141-0.26367 0.34125-0.105 0.50977-0.31516 0.50977-0.62891 0-0.15625-0.03773-0.28898-0.11524-0.39648-0.0775-0.10875-0.17617-0.19125-0.29492-0.25-0.11875-0.0575-0.29766-0.0859-0.53516-0.0859h-1.3223zm3.1992 0v2.8379h1.8027v-0.56055h-1.1289v-2.2773h-0.67383zm2.5703 0v2.8379h0.66406v-2.8379h-0.66406zm4.5586 0v2.8379h0.65234v-1.1699h0.88672v1.1699h0.65234v-2.8379h-0.65234v1.1055h-0.88672v-1.1055h-0.65234zm3.1875 0v2.8379h2.0273v-0.56055h-1.3516v-0.62109h1.0625v-0.53321h-1.0625v-0.58203h1.3516v-0.54101h-2.0273zm2.8516 0v2.8379h0.97656c0.42125 0 0.75219-0.1357 0.99219-0.40821 0.24-0.2725 0.35938-0.61132 0.35938-1.0176 0-0.32375-0.06953-0.58953-0.20703-0.80078-0.13625-0.21125-0.29109-0.36735-0.46484-0.46485-0.1725-0.0988-0.43656-0.14648-0.78906-0.14648h-0.86719zm-15.703 0.50195h0.45508c0.13875 0 0.23109 0.005 0.27734 0.0176 0.0475 0.0138 0.09211 0.0464 0.13086 0.0977 0.04 0.0525 0.06055 0.11625 0.06055 0.1875 0 0.0675-0.02547 0.13649-0.07422 0.20899-0.0475 0.0738-0.16195 0.10937-0.3457 0.10937h-0.50391v-0.62109zm16.355 0.0195h0.28125c0.14 0 0.25938 0.0298 0.35938 0.0898 0.09875 0.0588 0.18375 0.16039 0.25 0.30664 0.0675 0.14625 0.09961 0.30406 0.09961 0.47656 0 0.24375-0.05828 0.45672-0.17578 0.63672-0.1175 0.1825-0.29781 0.27343-0.53906 0.27343h-0.27539v-1.7832zm-19.096 0.21289 0.29883 0.9961h-0.60156l0.30274-0.9961zm2.7402 0.89453h0.53906c0.16 0 0.275 0.0334 0.34375 0.0996 0.06875 0.0663 0.10352 0.14383 0.10352 0.23633 0 0.10875-0.03617 0.19461-0.10742 0.25586-0.0725 0.0613-0.19539 0.0918-0.36914 0.0918h-0.50977v-0.6836zm-5.541 2.2598c-0.29875 0.4825-0.94062 0.8675-1.9219 1.1562v1.168c0.3775-0.155 0.90383-0.43836 1.5801-0.84961v3.25h-1.7207v1.0391h4.5996v-1.0391h-1.5723v-4.7246h-0.96484zm5.8281 0c-0.655 0-1.1623 0.16273-1.5273 0.49023-0.365 0.32625-0.54688 0.7211-0.54688 1.1836 0 0.5575 0.27422 0.98797 0.82422 1.293-0.6775 0.2475-1.0156 0.66812-1.0156 1.2656 0 0.47125 0.18539 0.86031 0.55664 1.1641 0.3725 0.30375 0.90672 0.45508 1.6055 0.45508 0.75625 0 1.3358-0.16484 1.7383-0.49609 0.40125-0.33 0.60352-0.74977 0.60352-1.2598 0-0.64125-0.35148-1.1072-1.0527-1.3984 0.57125-0.25 0.85742-0.64993 0.85742-1.2012 0-0.4325-0.18328-0.78851-0.55078-1.0723-0.3675-0.2825-0.86594-0.42383-1.4922-0.42383zm5.6348 0c-0.655 0-1.1643 0.16273-1.5293 0.49023-0.365 0.32625-0.54688 0.7211-0.54688 1.1836 0 0.5575 0.27547 0.98797 0.82422 1.293-0.67625 0.2475-1.0156 0.66812-1.0156 1.2656 0 0.47125 0.18539 0.86031 0.55664 1.1641 0.3725 0.30375 0.90797 0.45508 1.6055 0.45508 0.7575 0 1.3377-0.16484 1.7402-0.49609 0.4025-0.33 0.60156-0.74977 0.60156-1.2598 0-0.64125-0.34828-1.1072-1.0508-1.3984 0.57125-0.25 0.85742-0.64993 0.85742-1.2012 0-0.4325-0.18648-0.78851-0.55274-1.0723-0.3675-0.2825-0.86398-0.42383-1.4902-0.42383zm5.6816 0-2.2891 3.4609v0.99218h2.4824v1.3106h1.3262v-1.3106h0.79492v-0.99218h-0.79492v-3.4609h-1.5195zm-11.354 0.85742c0.29625 0 0.52484 0.0683 0.68359 0.20703 0.16 0.13875 0.24023 0.31782 0.24023 0.53906 0 0.36501-0.19172 0.60641-0.57422 0.72266-0.48-0.16-0.78617-0.29992-0.91992-0.41992-0.1325-0.12-0.19727-0.26484-0.19727-0.43359 0-0.18 0.06617-0.32836 0.20117-0.44336 0.13625-0.115 0.32516-0.17188 0.56641-0.17188zm5.6348 0c0.29625 0 0.52484 0.0683 0.68359 0.20703 0.16 0.13875 0.24024 0.31781 0.24024 0.53906 0 0.365-0.19172 0.60641-0.57422 0.72266-0.48-0.16-0.78742-0.29992-0.91992-0.41992-0.13375-0.12-0.20117-0.26484-0.20117-0.43359 0-0.18 0.07008-0.32836 0.20508-0.44336 0.13625-0.115 0.32516-0.17188 0.56641-0.17188zm5.9902 0.17774-0.0078 0.23437c-0.0062 0.105-0.0078 0.19453-0.0078 0.26953v1.9219h-1.543l1.5586-2.4258zm-11.947 2.3535c0.6175 0.20125 0.99039 0.3668 1.1191 0.49805 0.12875 0.13125 0.19336 0.27484 0.19336 0.43359 0 0.2025-0.08953 0.35719-0.26953 0.46094-0.18125 0.10375-0.41633 0.15625-0.70508 0.15625-0.3325 0-0.58898-0.0681-0.77148-0.20313-0.18375-0.13375-0.27539-0.31843-0.27539-0.55468 0-0.38875 0.23648-0.65227 0.70898-0.79102zm5.6348 0c0.6175 0.20125 0.99039 0.3668 1.1191 0.49805 0.12875 0.13125 0.19336 0.27484 0.19336 0.43359 0 0.2025-0.09023 0.35719-0.27148 0.46094-0.18 0.10375-0.41438 0.15625-0.70312 0.15625-0.3325 0-0.58969-0.0681-0.77344-0.20313-0.1825-0.13375-0.27344-0.31843-0.27344-0.55468 0-0.38875 0.23648-0.65227 0.70898-0.79102z" transform="matrix(.8 0 0 -.8 41.75 482.45)" fill="#4f2d8b"/><path d="m72.178 8.3027-0.29492 2.2676 0.46875 0.03125c0.34375-1.0487 0.49812-1.4189 1.5781-1.3477l1.668 0.11133-0.49414 7.4961c-0.04125 0.625-0.44586 0.59977-1.3184 0.54102l-0.03125 0.50781c0.29875 0.02 1.7456 0.07586 2.1094 0.09961 0.3 0.02 1.6895 0.15062 2.002 0.17188l0.0332-0.50781c-0.91125-0.06-1.2756-0.08523-1.2344-0.70898l0.49609-7.498 1.7051 0.11328c1.0675 0.07125 1.1701 0.46977 1.3613 1.541l0.46875 0.03125 0.01953-2.2871-0.3125-0.021484c-0.026 0.1823-0.235 0.1963-0.497 0.1788l-6.976-0.461c-0.183-0.0112-0.452-0.0545-0.453-0.2382l-0.299-0.0196zm-4.022 0.3203c-0.19465-0.00826-0.38219-0.00531-0.55469 0.00781-1.7687 0.1325-2.9593 1.1899-2.8418 2.7637 0.1125 1.4962 1.2888 2.1788 2.4863 2.625 1.1988 0.46 2.1819 0.81875 2.2656 1.9375 0.0675 0.8975-0.66391 1.6073-1.6914 1.6836-1.4312 0.1075-2.0177-0.7257-2.3652-1.877l-0.49414 0.03711 0.21289 1.9863c0.7175 0.32625 1.6259 0.55727 2.6797 0.47852 1.8088-0.135 3.1925-1.195 3.0625-2.9375-0.12625-1.6788-1.572-2.3017-2.877-2.793-0.9975-0.38375-1.8792-0.80203-1.9492-1.7383-0.06125-0.82 0.43906-1.4716 1.5703-1.5566 1.1975-0.09 1.82 0.53156 1.9688 1.6328l0.53125-0.04102-0.24609-1.8906c-0.523-0.1772-1.174-0.2936-1.758-0.3184zm-6.3906 0.73828c-1.375 0.3125-4.036 0.97148-4.9785 1.1777-0.6375 0.1375-1.4998 0.28648-2.0098 0.39648l0.10742 0.49805c0.8675-0.18875 1.2366-0.26945 1.3691 0.3418l1.4902 6.8477c0.13375 0.61125-0.19656 0.68336-1.1016 0.88086l0.109 0.495c0.43125-0.10625 1.5603-0.37898 2.0703-0.49023 0.79-0.17125 4.354-0.85274 5.2715-1.0527-0.03-0.38125-0.01711-1.9191 0.02539-2.2754l-0.51367-0.03516c-0.13125 1.4838-0.45656 1.8346-1.8203 2.1309l-1.019 0.222c-1.148 0.249-1.392 0.303-1.514-0.258l-0.70703-3.252 2.0527-0.44726c0.88-0.1925 1.0509 0.28031 1.2422 1.0391l0.4707-0.10352c-0.0875-0.34125-0.25555-0.9982-0.37305-1.5332-0.105-0.485-0.23836-1.2175-0.28711-1.5l-0.4707 0.10156c0.1075 0.6175 0.16906 1.2052-0.71094 1.3965l-2.0527 0.44727-0.75391-3.4551 2.2832-0.49609c1.0838-0.23625 1.4848 0.13039 1.9473 1.1504l0.416-0.17-0.541-2.0587zm21.038 0.0508-0.115 0.4961c0.865 0.2 1.235 0.28648 1.0938 0.89648l-1.5781 6.8242c-0.14125 0.61125-0.47055 0.53492-1.373 0.32617l-0.11523 0.49414c0.43625 0.0875 1.5726 0.32391 2.0801 0.44141 0.78875 0.18125 4.3018 1.0876 5.2168 1.2988 0.13625-0.3575 0.80414-1.7412 0.99414-2.0449l-0.452-0.251c-0.752 1.285-1.195 1.464-2.555 1.15l-1.0156-0.23633c-1.145-0.265-1.3853-0.31891-1.2578-0.87891l0.75-3.2422 2.0469 0.47461c0.8775 0.2025 0.82773 0.7 0.67773 1.4688l0.4707 0.10938c0.06625-0.34625 0.19266-1.0151 0.31641-1.5488 0.11125-0.4825 0.30531-1.2003 0.38281-1.4766l-0.4707-0.10938c-0.16625 0.60375-0.36203 1.1615-1.2383 0.95898l-2.0488-0.47461 0.79688-3.4434 2.2754 0.52539c1.0812 0.25 1.287 0.7518 1.2695 1.873l0.44727 0.02539 0.39258-2.0938c-1.3762-0.30375-4.0639-0.84625-5.0039-1.0625-0.63625-0.1475-1.4795-0.3825-1.9883-0.5zm-30.295 1.9709c-0.18 0.08-0.82086 0.40477-1.1309 0.54102-0.34625 0.15375-0.98148 0.39414-1.209 0.49414l0.20508 0.46484c0.56125-0.2475 0.77781-0.24359 0.91406 0.06641 0.11125 0.25125 0.15977 0.81226 0.22852 1.3535l0.61328 5.4199-4.2578-4.5645c-0.27375-0.26375-0.47484-0.48938-0.52734-0.60938-0.105-0.23875 0.24867-0.43695 0.60742-0.5957l-0.20508-0.46484c-0.2275 0.1-1.2017 0.57344-1.5117 0.71094-0.3825 0.16875-1.3404 0.55125-1.6504 0.6875l0.20508 0.46484c0.60875-0.27 0.75219-0.33234 1.0859 0.0039l1.5117 1.5449 0.51953 4.6914-4.2461-4.5703c-0.27375-0.26375-0.47484-0.48938-0.52734-0.60938-0.10625-0.23875 0.24992-0.43695 0.60742-0.5957l-0.20703-0.46484c-0.22625 0.1-1.2115 0.57734-1.5215 0.71484-0.38125 0.16875-1.3404 0.55-1.6504 0.6875l0.20508 0.46484c0.60875-0.26875 0.75094-0.33164 1.0859 0.0059l6.3594 6.4746 0.5957-0.26367c-0.0725-0.4525-0.12352-1.6008-0.16602-2.082l-0.35352-3.7383 4.1348 4.2207 0.60742-0.26953c-0.0725-0.4525-0.14531-1.5888-0.16406-2.0801l-0.575-6.236c-0.09375-0.985-0.01141-1.1223 0.62109-1.4023l-0.20508-0.46484zm40.029 0.44141-0.19531 0.4707c0.725 0.2975 1.1352 0.46617 0.89648 1.0449l-2.666 6.4785c-0.2375 0.57875-0.58734 0.43383-1.3711 0.11133l-0.19531 0.4707c0.31375 0.12875 1.4518 0.55352 1.873 0.72852 0.45875 0.1875 1.5659 0.6868 1.8672 0.81055l0.19336-0.4707c-0.7725-0.3175-1.1691-0.47984-0.93164-1.0586l1.2207-2.9688 0.62695 0.25781c0.3375 0.13875 0.39078 0.52781 0.48828 0.97656l0.49805 2.3496c0.31125 1.3688 0.47391 2.0424 1.6914 2.5449 0.1925 0.07875 0.74274 0.24805 0.92774 0.31055l0.19336-0.4707c-0.51875-0.21375-0.73516-0.40117-0.91016-1.1074l-1.0215-4.1016c1.35 0.21625 2.4165-0.31758 2.834-1.3301 0.53625-1.3038-0.13125-2.6647-2.2188-3.5234-0.55375-0.22875-1.7789-0.64726-2.1289-0.79102-0.47-0.19375-1.3831-0.61242-1.6719-0.73242zm2.3203 1.6621c0.1675 0.04 0.64266 0.22094 0.84766 0.30469 1.3512 0.55625 1.7099 1.4665 1.2637 2.5527-0.4275 1.0375-1.2938 1.4284-2.6562 0.86719l-0.8457-0.34766 1.3906-3.377zm7.5508 2.5293-0.27539 0.42578c0.47125 0.305 0.68664 0.47539 0.83789 0.96289 0.0763 0.21875 0.0541 0.56281-0.19336 0.94531l-3.3105 5.1152c-0.475 0.73375-0.83617 0.54508-1.7012-0.01367l-0.27734 0.42578c0.23 0.14875 1.2388 0.75383 1.5 0.92383 0.23 0.15 1.1396 0.78516 1.3809 0.94141l0.27539-0.42774c-0.865-0.56-1.1402-0.7825-0.61523-1.5938l3.1426-4.8496 1.2129 7.9648c0.0375 0.35125 0.21437 1.3513 0.23437 1.7988l0.50391 0.32617c0.21875-0.43375 0.86773-1.5812 1.209-2.1074l2.9492-4.5566c0.5325-0.82125 0.84578-0.67961 1.6445-0.16211l0.27734-0.42774c-0.20875-0.135-1.1716-0.71164-1.3691-0.83789-0.2625-0.17125-1.1498-0.79258-1.4023-0.95508l-0.27734 0.42578c0.96375 0.625 1.1397 0.78492 0.58593 1.6387l-2.8418 4.3926-1.4629-9.0449c-0.15375-0.1-0.76789-0.45039-0.93164-0.55664-0.18625-0.12-0.90946-0.63391-1.0957-0.75391zm-64.084 2.1133c-0.22 0.16375-1.3352 1.0452-1.5977 1.2402-0.25125 0.18625-1.384 0.98203-1.6465 1.1758l0.30469 0.4082c0.6175-0.46 0.98367-0.73297 1.3574-0.23047l1.799 2.417-3.84 2.861-1.799-2.416c-0.375-0.5025 0.03289-0.80758 0.65039-1.2676l-0.304-0.408c-0.25 0.1875-1.3994 1.0905-1.6719 1.293-0.23 0.17125-1.3833 0.9818-1.6133 1.1543l0.30273 0.4082c0.63875-0.475 1.0052-0.74859 1.3789-0.24609l4.177 5.608c0.38125 0.5125 0.04695 0.76297-0.62305 1.2617l0.30273 0.4082c0.25125-0.1875 1.3696-1.0687 1.6309-1.2637 0.25125-0.18625 1.415-1.0048 1.6562-1.1836l-0.30469-0.4082c-0.64875 0.48375-1.0247 0.76422-1.3984 0.26172l-1.9727-2.6465 3.8398-2.8594 1.9727 2.6465c0.37375 0.50125 0.0079 0.77531-0.59961 1.2266l0.30469 0.4082c0.26125-0.195 1.3991-1.0898 1.6504-1.2773 0.25125-0.1875 1.372-0.97461 1.582-1.1309l-0.30469-0.4082c-0.68 0.50625-1.0149 0.75641-1.3887 0.25391l-4.1602-5.5879c-0.3975-0.53375-0.04156-0.79586 0.61719-1.2871l-0.30469-0.41016zm77.732 7.4863c-0.57999 0.06359-1.1348 0.32297-1.6172 0.79688-1.2225 1.2025-0.95273 2.7324-0.45898 4.1074 0.48375 1.385 0.89617 2.5075-0.0176 3.4062-0.73375 0.72-1.8918 0.60367-2.7168-0.23633-1.15-1.1688-0.85492-2.2948-0.10742-3.4473l-0.39648-0.4043-1.5742 1.6523c0.245 0.86625 0.71039 1.8302 1.5566 2.6914 1.4525 1.4775 3.3992 1.9052 4.8242 0.50391 1.3712-1.3475 0.84945-3.0691 0.31445-4.5703-0.40125-1.1525-0.68883-2.2312 0.0762-2.9824 0.67-0.65875 1.6088-0.7043 2.5176 0.2207 0.96125 0.97875 0.8786 1.9787 0.0273 2.9199l0.42968 0.43555 1.4688-1.6113c-0.31-0.7825-0.88179-1.6823-1.4355-2.2461-0.88829-0.90391-1.924-1.3423-2.8906-1.2363zm-87.895 0.19336-0.21094 0.23047c0.125 0.1325 0.0017 0.30359-0.17578 0.49609l-4.752 5.1289c-0.12375 0.13375-0.32891 0.31812-0.47266 0.20313l-0.20117 0.2207 1.5762 1.6562 0.32031-0.34375c-0.59875-0.9275-0.78774-1.2824-0.05273-2.0762l1.1348-1.2246 5.5137 5.1055c0.45875 0.42625 0.18555 0.72203-0.4082 1.3633l0.37109 0.3457c0.20375-0.22 1.1595-1.3087 1.4082-1.5762 0.20375-0.22 1.182-1.2185 1.3945-1.4473l-0.375-0.34766c-0.62 0.67-0.86938 0.93992-1.3281 0.51367l-5.5137-5.1055 1.1621-1.2539c0.72625-0.785 1.1022-0.61414 2.0547-0.08789l0.32031-0.3457-1.7656-1.4551zm93.465 5.791-1.9375 1.2188 0.27539 0.37891c1.0275-0.4025 1.4124-0.51742 2.0449 0.36133l0.97461 1.3555-6.0977 4.3906c-0.5075 0.365-0.74461 0.03812-1.2559-0.67188l-0.41211 0.29688c0.175 0.24375 1.0531 1.3971 1.2656 1.6934 0.17624 0.24375 0.96007 1.3986 1.1426 1.6523l0.41407-0.29883c-0.53375-0.74-0.74774-1.0373-0.24024-1.4023l6.0977-4.3906 1 1.3867c0.625 0.86875 0.38273 1.2025-0.32227 2.0312l0.27539 0.38281 1.7754-1.4414-0.18359-0.25391c-0.155 0.09625-0.29867-0.05828-0.45117-0.26953l-4.0859-5.6738c-0.10625-0.14875-0.24547-0.38641-0.10547-0.50391l-0.17383-0.24219zm-99.994 3.5039c-0.8259 0.08442-1.6938 0.67266-2.4805 1.8438-0.33375 0.4975-0.98992 1.6133-1.2012 1.9258-0.28375 0.4225-0.87578 1.2341-1.0508 1.4941l0.42188 0.28516c0.43625-0.65 0.68312-1.0187 1.2031-0.66992l5.8145 3.9102c0.51875 0.34875 0.30773 0.66219-0.16602 1.3672l0.42383 0.2832c0.18875-0.2825 0.83289-1.3095 1.0879-1.6895 0.27625-0.41125 0.98672-1.396 1.168-1.666l-0.42188-0.28516c-0.465 0.6925-0.70781 1.0512-1.2266 0.70117l-2.666-1.79 0.377-0.562c0.20375-0.30375 0.59594-0.27625 1.0547-0.28125l2.4023-0.02148c1.4038-0.03 2.0951-0.05203 2.8301-1.1445 0.11625-0.17375 0.39344-0.67961 0.49219-0.84961l-0.42188-0.2832c-0.3125 0.46625-0.54203 0.64117-1.2695 0.66992l-4.2227 0.18164c0.4825-1.28 0.17172-2.4317-0.73828-3.043-0.43828-0.29484-0.91852-0.42566-1.4141-0.375zm-0.50391 1.4492c0.35499 0.0021 0.71836 0.13133 1.084 0.37695 0.93125 0.62625 1.1409 1.5516 0.31836 2.7754l-0.50977 0.75781-3.0312-2.0371c0.0725-0.155 0.34695-0.58578 0.4707-0.76953 0.50937-0.75781 1.0763-1.1071 1.668-1.1035zm20.807 4.9941v3.0391h16.82v-3.0391h-16.82zm21.799 0.02344v3.0391h16.82v-3.0391h-16.82zm21.809 0.01367v3.0371h16.82v-3.0371h-16.82zm42.738 0.75977c-0.0637 0.07625-0.20828 0.22469-0.30078 0.27344-0.20875 0.1075-0.89609 0.16984-1.1524 0.21484l-6.6387 0.82227c-0.7575 0.0975-0.94664 0.01836-1.2754-0.61914l-0.45312 0.23438c0.1375 0.26625 0.58703 1.048 0.70703 1.2793 0.11375 0.22 0.41359 0.88656 0.55859 1.1641l0.45117-0.23242c-0.24625-0.475-0.41914-0.81188-0.0254-1.0156 0.15125-0.0775 0.39469-0.14445 0.67969-0.18945l1.9102-0.34375 1.4688 2.8398-1.1719 1.2832c-0.1425 0.1775-0.53476 0.55492-0.69726 0.63867-0.37125 0.1925-0.555-0.10797-0.8125-0.60547l-0.45313 0.23242c0.1625 0.3125 0.67711 1.2215 0.88086 1.6152 0.18625 0.36 0.63555 1.317 0.7793 1.5957l0.45312-0.23438c-0.33625-0.65-0.14023-0.89781 0.35352-1.4766l5.6621-6.3984c-0.20125-0.19-0.73383-0.82438-0.92383-1.0781zm-1.0644 1.0059 0.01 0.02344-2.5371 2.8711-1.2422-2.3965 3.7695-0.49805zm-109.23 0.437c-1.8919-0.01904-3.5753 1.1292-4.3516 2.8945-1.05 2.3887-0.06922 5.2127 2.582 6.3789 2.4138 1.0612 5.1162 0.03977 6.1875-2.3965 1.1812-2.6875-0.08242-5.3942-2.4824-6.4492-0.65094-0.28625-1.3049-0.42139-1.9355-0.42774zm-0.78516 1.6426c0.79238 0.02213 1.6314 0.22953 2.4062 0.57031 1.9588 0.86125 3.1106 2.3931 2.3281 4.1719-0.835 1.9-3.3067 2.0402-5.4805 1.084-2.1262-0.935-3.0215-2.5259-2.3027-4.1621 0.53828-1.2242 1.7282-1.701 3.0488-1.6641zm28.979 0.69531-1.3848 45.574 11.053 0.0098-1.4141-45.584h-8.2539zm21.799 0.02344-1.3867 45.574 11.055 0.01172-1.416-45.586h-8.252zm21.809 0.01172-1.3867 45.574 11.055 0.0098-1.4141-45.584h-8.2539zm41.518 1.4316-2.2051 0.60742 0.15234 0.44336c1.1012-0.0875 1.5003-0.0882 1.8516 0.93555l0.54296 1.5801-7.1074 2.4414c-0.5925 0.2025-0.72406-0.17961-1.0078-1.0059l-0.48047 0.16406c0.0975 0.28375 0.60516 1.6413 0.72266 1.9863 0.0975 0.28375 0.51273 1.6178 0.61523 1.9141l0.48242-0.16602c-0.29625-0.86375-0.41547-1.2084 0.17578-1.4121l7.1074-2.4395 0.55664 1.6152c0.3475 1.0112 0.0173 1.2635-0.89649 1.8535l0.15235 0.44336 2.1191-0.86523-0.10157-0.29492c-0.1775 0.04625-0.27046-0.14242-0.35546-0.38867l-2.2715-6.6152c-0.0588-0.1725-0.12383-0.44242 0.0449-0.51367l-0.0976-0.2832zm-121.59 5.598c-0.05875 0.2775-0.27703 1.5422-0.33203 1.8047-0.07375 0.35-0.36945 1.5524-0.43945 1.8887l0.5684 0.119c0.26875-1.2838 0.36641-1.5376 1.5039-1.2988l5.8555 1.2207-9.041 5.2852c-0.0425 0.205-0.16273 1.0039-0.20898 1.2227-0.05125 0.2475-0.30422 1.2317-0.35547 1.4805l0.57031 0.11719c0.13125-0.6275 0.22219-0.92781 0.67969-1.2891 0.2025-0.17125 0.57859-0.28984 1.0898-0.18359l6.8164 1.4238c0.9775 0.20375 0.9268 0.66461 0.68555 1.8184l0.57031 0.11914c0.06375-0.3075 0.29344-1.6305 0.36719-1.9805 0.06375-0.30625 0.36609-1.5381 0.43359-1.8594l-0.57031-0.11914c-0.24 1.1525-0.36531 1.5375-1.4453 1.3125l-6.468-1.348 7.992-4.576c0.35875-0.185 1.3523-0.78398 1.8223-0.99023l0.14062-0.67188c-0.5525-0.05375-2.0448-0.27438-2.7461-0.42188l-6.0703-1.2676c-1.095-0.22875-1.0741-0.6193-0.85156-1.6855l-0.5682-0.118zm124.67 4.6602-0.50195 0.08398c0.14875 0.875 0.2132 1.2485-0.4043 1.3535l-6.9062 1.1719c-0.61625 0.105-0.67508-0.23008-0.83008-1.1426l-0.50195 0.08594c0.0875 0.435 0.30703 1.5748 0.39453 2.0898 0.13625 0.7975 0.65305 4.3862 0.81055 5.3125 0.38125-0.0125 1.9177 0.07211 2.2715 0.13086l0.0586-0.51367c-1.4762-0.19875-1.8112-0.53781-2.0449-1.9141l-0.17578-1.0293c-0.19625-1.1575-0.23812-1.4018 0.32813-1.498l3.2793-0.55664 0.35156 2.0723c0.15 0.88625-0.32625 1.0339-1.0937 1.1914l0.0801 0.47461c0.345-0.07125 1.0108-0.21023 1.5508-0.30273 0.48875-0.0825 1.2255-0.18305 1.5117-0.2168l-0.082-0.47656c-0.62125 0.07875-1.2113 0.11211-1.3613-0.77539l-0.35156-2.0684 3.4863-0.59375 0.38867 2.3027c0.18625 1.0938-0.20023 1.4756-1.2402 1.8906l0.15234 0.42383 2.0801-0.44531c-0.24875-1.3862-0.78406-4.0741-0.94531-5.0254-0.10875-0.64375-0.21719-1.5104-0.30469-2.0254zm-116.05 20.761-0.555 0.121c0.2125 0.97 0.30555 1.3965-0.4082 1.5527l-5.5312 1.2129c-2.3387 0.5125-3.1926 2.2706-2.6113 4.9219 0.51 2.3238 1.9344 3.7152 4.6719 3.1152l4.7617-1.0449c1.1975-0.2625 1.2762 0.09391 1.4824 1.0352l0.55664-0.12109c-0.06625-0.29875-0.34625-1.3745-0.40625-1.6445-0.0625-0.28625-0.25742-1.3796-0.32617-1.6934l-0.556 0.124c0.21625 1.0575 0.28859 1.3117-0.91016 1.5742l-4.748 1.041c-1.7538 0.38375-3.2034-0.29914-3.6172-2.1816-0.44625-2.0388 0.64797-3.1155 2.3867-3.498l5.248-1.1484c0.68375-0.15 0.79625 0.36281 1 1.2891l0.55664-0.12109c-0.075-0.3425-0.47203-1.9445-0.55078-2.3008-0.08125-0.37125-0.37281-1.9049-0.44531-2.2324zm116.18 1.1211c-0.11125 0.615-0.37227 0.6807-1.0098 0.81445l-7.1816 1.375c0.0375 0.23375 0.0669 0.94164 0.0644 1.2129 0.0825-0.01875 0.25696-0.04555 0.34571-0.0293 0.1975 0.03625 0.69633 0.35523 0.89258 0.45898l4.9258 2.9121c0.56375 0.33 0.65101 0.48289 0.54101 1.0879l0.42774 0.07617c0.0462-0.2525 0.1514-1.0163 0.1914-1.2363 0.0375-0.20875 0.18297-0.81633 0.23047-1.0801l-0.42773-0.07813c-0.0812 0.45-0.14117 0.76867-0.51367 0.70117-0.14375-0.02625-0.34305-0.10781-0.56055-0.22656l-1.4707-0.76758 0.48828-2.6895 1.4629-0.25586c0.19-0.045 0.65484-0.09711 0.80859-0.06836 0.35125 0.06375 0.31867 0.36344 0.23242 0.83594l0.42969 0.07617c0.0525-0.29625 0.18055-1.1802 0.24805-1.5527 0.0625-0.34125 0.25523-1.2258 0.30273-1.4883l-0.42773-0.07813zm-3.6562 2.6367-0.41211 2.2754-2.8106-1.6348 0.004-0.02148 3.2188-0.61914zm-5.1152 3.8789c-0.0687 0.20125-0.35172 1.1186-0.41797 1.3086-0.0875 0.2525-0.4221 1.1188-0.50586 1.3613l0.41016 0.14258c0.32125-0.9275 0.41969-1.1073 1.2422-0.82227l4.2305 1.4688-7.2188 3.0605c-0.0512 0.1475-0.21774 0.72922-0.27149 0.88672-0.0625 0.17875-0.34375 0.88445-0.40625 1.0645l0.41211 0.14258c0.1575-0.45375 0.25516-0.66758 0.62891-0.89258 0.16625-0.1075 0.45742-0.16195 0.82617-0.0332l4.9238 1.709c0.7075 0.245 0.62664 0.58227 0.33789 1.416l0.41016 0.14258c0.0762-0.22125 0.37539-1.1798 0.46289-1.4336 0.0763-0.22125 0.42-1.1086 0.5-1.3398l-0.41211-0.14258c-0.28875 0.8325-0.41922 1.1059-1.1992 0.83594l-4.66-1.622 6.3711-2.6328c0.28375-0.1025 1.0785-0.45375 1.4473-0.5625l0.16992-0.48438c-0.405-0.09375-1.4918-0.39922-1.998-0.57422l-4.3887-1.5234c-0.79125-0.275-0.73696-0.56203-0.47071-1.332l-0.41211-0.14453zm-105.96 3.9355-0.39844 0.17188c0.19 0.44125 0.26117 0.66648 0.13867 1.084-0.05125 0.1925-0.22844 0.42898-0.58594 0.58398l-4.7832 2.0723c-0.68625 0.2975-0.85383-0.0064-1.2051-0.81641l-0.39844 0.17383c0.0925 0.215 0.52266 1.1209 0.62891 1.3672 0.09375 0.215 0.43961 1.0999 0.53711 1.3262l0.40039-0.17383c-0.35-0.80875-0.44039-1.099 0.31836-1.4277l4.5352-1.9668-2.9102 6.25c-0.14 0.2675-0.48805 1.0626-0.68555 1.3926l0.20312 0.47266c0.36125-0.20625 1.3688-0.71594 1.8613-0.92969l4.2598-1.8457c0.7675-0.3325 0.92305-0.08344 1.248 0.66406l0.39844-0.17383c-0.08375-0.195-0.49617-1.0623-0.57617-1.2461-0.10625-0.24625-0.44242-1.1095-0.54492-1.3457l-0.40039 0.17383c0.39125 0.90125 0.43938 1.0991-0.35938 1.4453l-4.1055 1.7793 3.2441-7.1367c-0.0625-0.14375-0.33094-0.68219-0.39844-0.83594-0.075-0.17375-0.34688-0.88484-0.42188-1.0586zm23.635 3.082v3.0215h13.771v-3.0215h-13.771zm21.799 0.02539v3.0195h13.771v-3.0195h-13.771zm21.809 0.01172v3.0195h13.771v-3.0195h-13.771zm-46.365 4.4844v4.5938h19.287v-4.5938h-19.287zm21.797 0.02344v4.5937h19.289v-4.5937h-19.289zm21.809 0.01172v4.5937h19.289v-4.5937h-19.289zm36.578 0.16211c-0.0363 0.23375-0.225 0.91633-0.3125 1.1738 0.085 0.0075 0.25718 0.03883 0.33593 0.08008 0.1775 0.095 0.55399 0.55024 0.70899 0.70898l3.7969 4.2832c0.435 0.48625 0.47164 0.65601 0.18164 1.1973l0.38282 0.20703c0.12125-0.22625 0.45554-0.92164 0.56054-1.1191 0.1-0.18625 0.42453-0.72273 0.55078-0.95898l-0.38476-0.20508c-0.215 0.40375-0.36813 0.68977-0.70313 0.50977-0.1275-0.0675-0.29289-0.20797-0.46289-0.38672l-1.166-1.1816 1.291-2.4082 1.4707 0.20313c0.195 0.015 0.65156 0.10789 0.78906 0.18164 0.315 0.16875 0.19304 0.44469-0.0332 0.86719l0.38281 0.20703c0.1425-0.26625 0.53414-1.0693 0.71289-1.4043 0.1625-0.305 0.61984-1.086 0.74609-1.3223l-0.38281-0.20508c-0.295 0.55125-0.56469 0.5343-1.2109 0.4668l-7.2539-0.89453zm-97.037 0.95312-0.375 0.22266c0.36375 0.61375 0.54398 0.92156 0.08398 1.1953l-5.1582 3.0488c-0.46 0.2725-0.63586-0.0254-1.0059-0.65039l-0.375 0.22267c0.13125 0.22124 0.78062 1.2502 0.92188 1.4902 0.13125 0.22125 0.70945 1.2661 0.8457 1.4961l0.37305-0.2207c-0.35125-0.59625-0.54523-0.92281-0.08398-1.1953l5.1582-3.0488c0.46125-0.27249 0.67086 0.0822 1.0059 0.64844l0.375-0.22265c-0.13625-0.23001-0.80172-1.2871-0.94922-1.5371-0.125-0.21125-0.69141-1.238-0.81641-1.4492zm97.961 0.46484 3.252 0.39844-1.0898 2.0371-2.1738-2.416 0.0117-0.01953zm-3.127 2.7402c-0.15125 0.22-0.83109 1.2691-0.99609 1.5078-0.13875 0.2025-0.82805 1.151-0.9668 1.3535l0.35938 0.2461c0.40375-0.58875 0.60562-0.88258 1.0469-0.58008l4.9414 3.3926c0.4425 0.3025 0.24593 0.58679-0.16407 1.1855l0.35938 0.2461c0.145-0.2125 0.80539-1.2329 0.96289-1.4629 0.145-0.21125 0.84875-1.1791 1-1.4004l-0.35742-0.24414c-0.39125 0.57-0.60758 0.88257-1.0488 0.58007l-4.9414-3.3926c-0.44125-0.30375-0.20843-0.64305 0.16407-1.1856l-0.35938-0.2461zm-92.848 0.33399-0.3457 0.26172c0.3425 0.45375 0.40578 0.55805 0.20703 0.90429l-4.0039 6.752 0.33594 0.44531c0.36375-0.14875 1.3024-0.42492 1.7012-0.54492l5.2285-1.5059c0.81375-0.2375 0.95891-0.1932 1.3164 0.2793l0.3457-0.26172c-0.1-0.13375-0.6175-0.76469-0.71875-0.89843-0.14125-0.18625-0.52484-0.74992-0.65234-0.91993l-0.326 0.27c0.31625 0.41875 0.38164 0.63555 0.15039 0.81055-0.205 0.15375-0.64273 0.31757-1.084 0.45507l-4.541 1.377 2.832-4.6191c0.165-0.28 0.3143-0.48985 0.4043-0.5586 0.1775-0.13375 0.41274 0.12313 0.61524 0.39063l0.34766-0.26367c-0.12875-0.16875-0.71953-0.89571-0.89453-1.127-0.21625-0.285-0.72148-1.009-0.89648-1.2402zm90.391 3.6367c-0.56 0.29-1.1877 0.78328-1.5664 1.2383-0.97 1.1675-1.027 2.5281 0.0117 3.3906 0.9875 0.82125 2.1062 0.50446 3.0938 0.0332 0.995-0.465 1.8003-0.85594 2.5391-0.24219 0.5925 0.4925 0.59305 1.3623 0.0293 2.041-0.785 0.945-1.6443 0.81109-2.5606 0.33984l-0.27148 0.32617 1.3496 1.0488c0.62625-0.2475 1.3092-0.66828 1.8867-1.3633 0.99125-1.1938 1.1637-2.6746 0.0137-3.6309-1.1075-0.92125-2.3509-0.40313-3.4297 0.10937-0.82875 0.385-1.6091 0.67977-2.2266 0.16602-0.54125-0.45-0.64539-1.1451-0.0254-1.8926 0.6575-0.79 1.4088-0.80273 2.1738-0.24023l0.29297-0.35157-1.3106-0.97265zm-85.213 3.0664-0.30469 0.3086c0.5375 0.535 0.76617 0.76258 0.38867 1.1426l-4.2227 4.2539c-0.3775 0.38125-0.58328 0.17594-1.1445-0.38281l-0.30664 0.31055c0.2775 0.25875 0.9982 0.94281 1.3145 1.2578 0.49125 0.4875 2.639 2.7287 3.209 3.2949 0.26-0.19875 1.3695-0.90601 1.6445-1.041l-0.21289-0.38672c-1.1262 0.59625-1.5295 0.52875-2.377-0.3125l-0.63477-0.63086c-0.71375-0.70749-0.86383-0.85633-0.51758-1.2051l2.0059-2.0215 1.2754 1.2676c0.54625 0.54251 0.28633 0.88376-0.16992 1.375l0.29492 0.28907c0.20375-0.22125 0.59774-0.64797 0.92774-0.98047 0.29875-0.30125 0.76211-0.73805 0.94336-0.9043l-0.29297-0.28906c-0.3925 0.36375-0.78773 0.68117-1.334 0.13867l-1.2754-1.2676 2.1309-2.1465 1.418 1.4082c0.67375 0.6675 0.59562 1.1261 0.07813 1.9336l0.31641 0.21875 1.2266-1.3457c-0.86375-0.84125-2.5739-2.4448-3.1602-3.0273-0.39625-0.3925-0.90445-0.94407-1.2207-1.2578zm81.441 0.95704c-0.19 0.19-1.0489 1.0977-1.2539 1.3027-0.17375 0.17375-1.0255 0.97859-1.1992 1.1523l0.30664 0.3086c0.505-0.50625 0.75797-0.75961 1.1367-0.38086l4.2402 4.2363c0.37875 0.37875 0.13555 0.62492-0.37695 1.1387l0.30664 0.30664c0.18125-0.1825 1.0174-1.0662 1.2148-1.2637 0.18124-0.18125 1.0483-1.0014 1.2383-1.1914l-0.3086-0.30859c-0.48875 0.49-0.75601 0.75836-1.1348 0.38086l-4.2402-4.2383c-0.38-0.37874-0.0873-0.67046 0.37891-1.1367l-0.30859-0.30664zm-2.8711 3.0273c-0.185 0.145-0.82984 0.69492-0.99609 0.82617-0.17625 0.1375-0.86414 0.63461-1.0566 0.78711l0.26757 0.3418c0.6575-0.50125 0.80797-0.63399 1.3867 0.10351l2.2969 2.9238c0.8475 1.08 0.85797 2.3048-0.30078 3.2148-1.255 0.985-2.3599 0.59078-3.2012-0.48047l-2.5371-3.2305c-0.33125-0.42-0.0146-0.67039 0.55664-1.1191l-0.26953-0.33985c-0.21 0.16501-1.1824 0.97008-1.4024 1.1426-0.2275 0.17875-1.1862 0.89133-1.3887 1.0488l0.26758 0.34375c0.59625-0.47 0.86133-0.67703 1.2051-0.23828l2.6758 3.4062c1.1312 1.44 2.6241 1.4446 4.2578 0.16211 1.43-1.1238 1.9156-2.5689 0.5918-4.2539l-2.3047-2.9316c-0.57875-0.7375-0.3593-0.91023 0.2207-1.3652l-0.26953-0.3418zm-73.299 1.2031-0.26172 0.34766c0.535 0.4025 0.83883 0.62984 0.51758 1.0586l-3.5996 4.7949c-0.32125 0.42875-0.58016 0.23382-1.1602-0.20118l-0.25977 0.34766c0.23125 0.175 1.082 0.77086 1.3945 1.0059 0.33875 0.25375 1.1493 0.90477 1.373 1.0723l0.25977-0.34766c-0.57125-0.43-0.86617-0.64938-0.54492-1.0781l1.6504-2.1973 0.46484 0.34765c0.24875 0.1875 0.20836 0.52157 0.19336 0.91407l-0.08984 2.0527c-0.03625 1.2012-0.04773 1.7925 0.85352 2.4688 0.14375 0.1075 0.56188 0.36774 0.70312 0.45899l0.26172-0.34766c-0.38375-0.2875-0.52383-0.49273-0.51758-1.1152l0.0332-3.6172c1.0712 0.47 2.0703 0.25711 2.6328-0.49414 0.72375-0.96375 0.46367-2.2345-1.0801-3.3945-0.41125-0.3075-1.3357-0.91758-1.5957-1.1113-0.3475-0.2625-1.0148-0.80485-1.2285-0.96485zm1.5664 1.875c0.13 0.0688 0.48352 0.31985 0.63477 0.4336 1 0.75 1.1025 1.581 0.5 2.3848-0.57625 0.7675-1.378 0.90789-2.3867 0.15039l-0.62305-0.46875 1.875-2.5zm5.875 3.5879c-0.77636-0.0279-1.4621 0.31797-1.8809 1.0508-0.63625 1.115-0.12719 2.1627 0.50781 3.0527 0.63125 0.9 1.1559 1.6252 0.67969 2.459-0.3825 0.66875-1.2416 0.82227-2.0078 0.38477-1.0663-0.60875-1.083-1.4811-0.7793-2.4648l-0.36719-0.20899-0.79883 1.5098c0.3525 0.57501 0.88492 1.1743 1.6699 1.6231 1.3475 0.76998 2.8376 0.68281 3.5801-0.61719 0.71375-1.2512-0.01383-2.3856-0.70508-3.3594-0.52375-0.74875-0.94758-1.4685-0.54883-2.166 0.34875-0.61125 1.0156-0.83282 1.8594-0.35157 0.89125 0.50875 1.0358 1.2471 0.61328 2.0996l0.39844 0.22657 0.73047-1.4609c-0.3825-0.50125-0.97844-1.0344-1.4922-1.3281-0.49453-0.28218-0.99317-0.43246-1.459-0.44922zm57.369 0.17383c-0.7755-0.0471-1.5716 0.12993-2.293 0.5293-1.9538 1.0812-2.7508 3.5141-1.5508 5.6816 1.0925 1.9738 3.4594 2.678 5.4531 1.5742 2.1975-1.2162 2.7425-3.7113 1.6562-5.6738-0.73671-1.3312-1.9731-2.0329-3.2656-2.1113zm-0.94141 0.79297c1.21 0.0653 2.3652 1.1016 3.0664 2.3691 0.88625 1.6025 0.87492 3.2419-0.58008 4.0469-1.5525 0.86-3.306-0.32602-4.291-2.1035-0.96125-1.7388-0.7457-3.2873 0.5918-4.0273 0.40062-0.22156 0.80957-0.30694 1.2129-0.28516zm-52.297 1.1035-0.17969 0.39648c0.65125 0.295 0.97641 0.44485 0.75391 0.9336l-2.4805 5.457c-0.2225 0.4875-0.53727 0.34297-1.1973 0.043l-0.18164 0.39648c0.235 0.10625 1.3556 0.58031 1.6094 0.69531 0.23375 0.10625 1.307 0.63094 1.5508 0.74219l0.18164-0.39648c-0.63-0.2875-0.97641-0.44219-0.75391-0.92969l2.4805-5.459c0.22125-0.4875 0.59727-0.31742 1.1973-0.0449l0.17969-0.39648c-0.24375-0.11-1.3964-0.59875-1.6602-0.71875-0.22375-0.10125-1.2762-0.61625-1.5-0.71875zm43.002 0.83789c-0.3025 0.11-1.5227 0.59633-1.9102 0.73633-0.3275 0.11875-1.6128 0.54625-1.9141 0.65625l0.17188 0.4707c0.775-0.28125 1.1773-0.4157 1.3848 0.1543l2.3613 6.502c0.21125 0.58125-0.16594 0.70531-0.96094 1.0078l0.16992 0.47266c0.57625-0.22375 1.3913-0.54844 1.9238-0.74219 0.59375-0.215 4.1187-1.4129 4.9824-1.7129-0.115-0.61625-0.25961-1.6603-0.28711-2.2266l-0.47656 0.0508c-0.05 1.2938-0.13891 1.8051-1.4102 2.2676l-1.0898 0.39453c-0.93125 0.33875-1.2339 0.40859-1.4414-0.16015l-2.3184-6.3809c-0.21125-0.58125 0.20008-0.73133 0.98633-1.0176l-0.17188-0.47265zm-39.16 0.79101-0.72266 1.8184 0.38281 0.125c0.50625-0.7975 0.7125-1.0726 1.5938-0.78515l1.3574 0.44336-1.9902 6.1133c-0.165 0.50875-0.49508 0.40117-1.2051 0.16992l-0.13672 0.41211c0.24375 0.08 1.4342 0.4318 1.7305 0.5293 0.24375 0.0787 1.3693 0.48195 1.623 0.56445l0.13477-0.41406c-0.7425-0.2425-1.0393-0.33891-0.87305-0.84766l1.9902-6.1133 1.3906 0.45312c0.87 0.2825 0.87219 0.63571 0.80469 1.5645l0.38281 0.125 0.49805-1.8926-0.25391-0.082c-0.05875 0.145-0.23672 0.11101-0.44922 0.041l-5.6875-1.8516c-0.14875-0.0487-0.36367-0.14367-0.32617-0.29492l-0.24414-0.0781zm7.3066 2.5527-0.07227 0.42969c0.505 0.0875 0.665 0.14921 0.8125 0.48046l1.791 4.0762-0.41797 2.4434c-0.09 0.52875-0.47469 0.46109-1.1797 0.33984l-0.07227 0.43164c0.29625 0.05 1.3791 0.20203 1.7754 0.26953 0.38625 0.0662 1.3927 0.27156 1.6777 0.32031l0.07422-0.42773c-0.68125-0.1175-1.0561-0.18219-0.96484-0.71094l0.44531-2.6055 2.8574-3.0566c0.2625-0.2725 0.40641-0.32539 0.87891-0.24414l0.07422-0.42969c-0.165-0.0275-0.97367-0.13265-1.1387-0.16015-0.20875-0.0362-0.8318-0.17844-1.0293-0.21094l-0.07422 0.42969c0.5175 0.0888 0.63445 0.19844 0.5957 0.42969-0.02625 0.15375-0.31641 0.52312-0.69141 0.92187l-1.627 1.7715-1.2148-2.7656c-0.09625-0.23125-0.20344-0.52352-0.17969-0.66602 0.03625-0.21 0.21375-0.18937 0.6875-0.10937l0.07227-0.42969c-0.2525-0.0425-1.1047-0.15531-1.3359-0.19531-0.275-0.0475-1.5804-0.30328-1.7441-0.33203zm25.393 0.14453c-1.1762 0.20875-3.5327 0.67078-4.3027 0.80078-0.28625 0.0475-1.2502 0.17586-1.7227 0.25586l0.07227 0.42773c0.78125-0.13125 1.089-0.18179 1.1777 0.34571l0.99023 5.9121c0.08875 0.5275-0.17476 0.57203-0.97852 0.70703l0.07227 0.42969c0.33-0.055 1.2939-0.25102 1.7227-0.32227 0.4075-0.0687 1.436-0.20773 1.8223-0.27148l-0.07227-0.42969c-0.77 0.12875-1.1652 0.19351-1.2539-0.33399l-0.48438-2.8828 1.6836-0.2832c0.74875-0.12625 0.88141 0.32758 1.0039 0.98633l0.41797-0.0703c-0.03125-0.1875-0.18672-0.90812-0.26172-1.3594-0.0775-0.4625-0.15523-1.1285-0.17773-1.2598l-0.41797 0.0703c0.095 0.62875 0.13086 0.98398-0.65039 1.1152l-1.6836 0.2832-0.49609-2.9512 2.0039-0.33594c0.94625-0.15875 1.1809 0.22141 1.5371 1.0664l0.36328-0.12891-0.36524-1.7715zm-10.777 1.1348c-2.2312 0.055-4.0625 1.8428-4 4.3203 0.05625 2.255 1.8312 3.9735 4.1074 3.916 2.51-0.0625 4.1461-2.0251 4.0898-4.2676-0.06125-2.4325-1.9985-4.0237-4.1973-3.9687zm-0.13086 0.54882c1.83-0.045 2.7845 1.8949 2.832 3.8262 0.04625 1.83-0.72226 3.2791-2.3848 3.3203-1.775 0.045-2.7808-1.8164-2.832-3.8476-0.04875-1.9863 0.85602-3.2601 2.3848-3.2988z" transform="matrix(.8 0 0 -.8 41.75 482.45)" fill="#fff"/></g></g></g></svg>
