<?xml version="1.0" encoding="UTF-8" standalone="no"?>
<svg xmlns:rdf="http://www.w3.org/1999/02/22-rdf-syntax-ns#" xmlns="http://www.w3.org/2000/svg" xml:space="preserve" height="184.98" viewBox="0 0 184.97749 184.97626" width="184.98" version="1.1" xmlns:cc="http://creativecommons.org/ns#" xmlns:dc="http://purl.org/dc/elements/1.1/"><g transform="matrix(1.25 0 0 -1.25 -418.52 646.6)"><g transform="translate(.80171 .80171)"><g><path d="m408.01 369.3c40.422 0 73.191 32.769 73.191 73.191 0 40.421-32.769 73.19-73.191 73.19-40.421 0-73.191-32.769-73.191-73.19 0-40.422 32.77-73.191 73.191-73.191" fill="#fdb728"/><path d="m407.98 371.88c38.988 0 70.595 31.607 70.595 70.595s-31.607 70.595-70.595 70.595-70.595-31.607-70.595-70.595 31.607-70.595 70.595-70.595" fill="#9ea2a3"/><path d="m407.96 390.68c28.621 0 51.823 23.203 51.823 51.823 0 28.621-23.202 51.824-51.823 51.824s-51.823-23.203-51.823-51.824c0-28.62 23.202-51.823 51.823-51.823" fill="#fff"/><path d="m47.541 95.912-4.2363 6.168-6.6426-2.0098s5.8476 29.418 31.611 42.086l-1.875-8.8613s3.0078-1.4377 7.6953-2.8965c-20.118-12.525-26.553-34.486-26.553-34.486zm89.434 0.12305s-6.4274 21.93-26.512 34.459c-4.6567-1.4313-11.086-2.9097-18.205-3.1055-14.271 0.3925-25.773 5.9336-25.773 5.9336l2.7383 13.168c7.2475-3.5875 16.763-5.7909 23.035-5.9434 6.2725 0.15249 15.786 2.3558 23.033 5.9434l2.7266-13.115c0.003 0.002 0.0996 0.043 0.0996 0.043l-1.875 8.8613c25.764-12.668 31.609-42.086 31.609-42.086l-6.6406 2.0098-4.2363-6.168z" transform="matrix(.8 0 0 -.8 334.52 515.98)" fill="#a90533"/></g><g stroke="#fdb728" stroke-width="0.15" fill="none"><path d="m399.95 394.86c-0.03-0.134-0.045-0.156-0.156-0.156h-0.752c-0.097 0-0.141 0.015-0.148 0.067 0 0.037 0.022 0.096 0.029 0.126l1.466 4.792c0.03 0.096 0.037 0.111 0.164 0.111h0.773c0.112 0 0.127-0.03 0.157-0.119l1.458-4.799c0.007-0.03 0.03-0.089 0.03-0.119 0-0.044-0.075-0.059-0.149-0.059h-0.833c-0.075 0-0.09 0.022-0.127 0.156l-0.327 1.205h-1.28l-0.305-1.205zm1.094 3.155c-0.067 0.29-0.127 0.729-0.164 1.041h-0.015c-0.03-0.312-0.097-0.744-0.171-1.041l-0.327-1.28h0.982l-0.305 1.28z"/><path d="m408.16 394.86c0-0.134-0.03-0.156-0.156-0.156h-0.655c-0.126 0-0.156 0.022-0.156 0.156l-0.06 2.522c-0.007 0.268-0.015 0.923-0.015 1.191h-0.014c-0.045-0.268-0.179-0.901-0.261-1.168l-0.454-1.451c-0.029-0.104-0.037-0.127-0.163-0.127h-0.462c-0.126 0-0.134 0.023-0.163 0.127l-0.432 1.451c-0.082 0.267-0.216 0.9-0.26 1.168h-0.015c0-0.268-0.008-0.923-0.015-1.191l-0.075-2.522c-0.007-0.134-0.029-0.156-0.156-0.156h-0.543c-0.126 0-0.163 0.022-0.156 0.156l0.208 4.784c0 0.134 0.03 0.156 0.156 0.156h0.715c0.119 0 0.126-0.007 0.163-0.119l0.603-1.875c0.097-0.297 0.179-0.602 0.223-0.893h0.015c0.045 0.291 0.075 0.402 0.238 0.893l0.633 1.875c0.037 0.104 0.044 0.119 0.178 0.119h0.714c0.127 0 0.142-0.037 0.157-0.238l0.208-4.702z"/><path d="m410.92 399.8c1.421 0 2.165-0.461 2.165-2.522 0-2.136-0.863-2.575-2.187-2.575h-1.139c-0.126 0-0.156 0.03-0.156 0.157v4.784c0 0.134 0.03 0.156 0.164 0.156h1.153zm-0.045-4.293c0.841 0 1.154 0.365 1.154 1.785 0 1.333-0.32 1.704-1.154 1.704h-0.267v-3.489h0.267z"/><path d="m417.52 395.16c0-0.313-0.878-0.581-1.488-0.581-1.31 0-1.994 0.849-1.994 2.649 0 1.764 0.677 2.701 2.009 2.701 0.669 0 1.384-0.327 1.384-0.454 0-0.022-0.008-0.052-0.038-0.111l-0.245-0.491c-0.022-0.045-0.052-0.075-0.082-0.075-0.044 0-0.461 0.328-0.967 0.328-0.759 0-1.005-0.707-1.005-1.846 0-1.16 0.194-1.897 0.998-1.897 0.275 0 0.468 0.09 0.535 0.119v1.079h-0.558c-0.126 0-0.156 0.022-0.156 0.156v0.491c0 0.134 0.03 0.157 0.156 0.157h1.295c0.126 0 0.156-0.023 0.156-0.157v-2.068z"/></g><g><path d="m96.441 9.7422-3.2031 8.5254c-0.485 1.3-0.66562 1.5345-1.2031 1.5957l-0.01367 0.27344 2.1426 0.11914 0.01367-0.27344c-0.5475-0.015-0.74797-0.22422-0.73047-0.54297 0.0062-0.12125 0.04375-0.24078 0.1875-0.64453l0.36133-1.0176 2.584 0.14453 0.24609 1.0488c0.06 0.2775 0.10445 0.60141 0.0957 0.75391-0.015 0.27375-0.2057 0.39969-0.7832 0.36719l-0.01367 0.27344 3.6465 0.20312 0.01563-0.27344c-0.4525-0.08625-0.63664-0.33922-0.93164-1.6055l-2.139-8.9341-0.274-0.0137zm-6.5781 0.11523-3.9551 0.1875 0.01367 0.27344c0.79-0.0525 0.93469 0.42774 0.96094 0.99024l0.367 7.758c0.035 0.73-0.22258 1.0631-0.86133 1.0781l0.01172 0.27344 3.9551-0.1875-0.01367-0.27344c-0.73 0.035-0.95719-0.27586-0.99219-1.0059l-0.36914-7.8027c-0.035-0.73 0.30078-1.0201 0.89453-1.0176l-0.01172-0.27344zm12.816 0.59766-0.0508 0.26953c0.09 0.01625 0.27015 0.12812 0.34765 0.29688l0.47461 0.95508-1.4121 7.6191c-0.135 0.73375-0.42672 0.97258-1.1992 0.79883l-0.0508 0.27148 2.5762 0.47656 0.0488-0.27148c-0.75125-0.12375-0.94359-0.49992-0.80859-1.2324l1.2422-6.707 0.0273 0.0059 4.0898 9.1953 0.26954 0.05078 1.6934-9.1465c0.13625-0.73375 0.43969-0.87938 1.0547-0.76562l0.0488-0.26953-2.4102-0.44726-0.0488 0.27148c0.74875 0.13875 0.88531 0.48898 0.75781 1.1777l-0.95117 5.1348-0.0293-0.0078-3.2148-7.2207-2.4551-0.45508zm-22.523 0.2832c-0.27103 0.0022-0.56477 0.02742-0.88086 0.07617l-4.0332 0.62305 0.04102 0.27148c0.7475-0.14625 1.0267 0.16359 1.1367 0.87109l1.1875 7.6914c0.1075 0.6925-0.06727 1.057-0.82227 1.1582l0.04297 0.27148 4.0781-0.62891-0.04297-0.27148c-0.7525 0.11625-1.0497-0.02273-1.1797-0.86523l-0.54102-3.4902 0.37695-0.06055 3.0723 4.4277 2.6191-0.40625-0.04102-0.27148c-0.4975 0.0775-0.70781-0.07492-1.3203-0.95117l-2.225-3.23c1.11-0.495 1.6576-1.5494 1.4551-2.8594-0.201-1.304-1.027-2.371-2.924-2.356zm-1.0781 0.70508c1.1084-0.037 1.6059 0.51094 1.8203 1.8945 0.2625 1.7-0.21414 2.4071-1.4629 2.5996l-0.36328 0.05469-0.68945-4.4688 0.18164-0.0293c0.18422-0.02844 0.35534-0.0455 0.51367-0.05078zm-7.0703 0.77539-6.7441 1.9473 0.07617 0.26367c0.86875-0.28375 1.1284 0.0071 1.3359 0.72461l2.1426 7.416c0.215 0.74625 0.0557 1.1236-0.74805 1.3086l0.07617 0.26367 6.9629-2.0117-0.4043-3.2109-0.26367 0.07617c-0.09625 2.0238-0.64375 2.9277-2.5312 3.4727-0.71625 0.2075-0.91758 0.0582-1.2051-0.93555l-0.88672-3.0723c1.13-0.31125 1.9137 0.20914 2.3574 1.7441l0.26367-0.07617-1.4668-5.0762-0.26367 0.07617c0.45625 1.58 0.05187 2.426-1.0469 2.791l-1.1836-4.0957 0.75976-0.21875c2.18-0.63 2.9176 0.55102 3.3301 1.541l0.26367-0.07617-0.82422-2.8516zm45.02 1.3164-5.2578 7.4434c-0.79625 1.1362-1.0314 1.3165-1.5664 1.2402l-0.084 0.26172 2.0449 0.6582 0.084-0.26172c-0.5275-0.15375-0.66907-0.40719-0.57032-0.71094 0.0375-0.11625 0.10125-0.22312 0.34375-0.57812l0.60743-0.89258 2.4648 0.79297-0.0273 1.0781c-0.0113 0.285-0.0514 0.61016-0.0977 0.75391-0.0837 0.26125-0.30031 0.3357-0.85156 0.1582l-0.082 0.26172 3.4785 1.1172 0.084-0.25977c-0.41625-0.1975-0.52985-0.49172-0.4961-1.793l0.1875-9.1875-0.26172-0.08203zm-21.492 0.15039 0.03125 0.002 0.87891 3.6621-2.2344-0.125 1.3242-3.5391zm-31.754 1.0117-1.9668 0.82226 0.10742 0.25195c0.46375-0.19375 0.70633-0.16414 0.83008 0.13086 0.1 0.23875 0.16781 0.55844 0.22656 1.2109l0.46875 4.9492-0.02734 0.01172-3.4453-4.25c-0.265-0.3175-0.35726-0.46156-0.41602-0.60156-0.1225-0.295 0.01086-0.48375 0.53711-0.6875l-0.10547-0.25195-3.3555 1.4043 0.10547 0.25195c0.45625-0.0925 0.7357 0.02281 1.252 0.66406l6.1172 7.5234 0.25195-0.10742-0.89453-9.5098c-0.09625-1.0975 0.04117-1.3193 0.41992-1.5605l-0.108-0.251zm51.371 2.4258 0.0293 0.0098-0.0742 3.7676-2.1309-0.68555 2.1758-3.0918zm-63.264 2.834-0.24023 0.13477 1.873 8.9199c0.28875 1.3562 0.2618 1.6502-0.1582 1.9902l0.13477 0.23828 1.873-1.0488-0.13281-0.24023c-0.47125 0.28125-0.75391 0.21555-0.91016-0.06445-0.06-0.10625-0.0925-0.22898-0.1875-0.64648l-0.24219-1.0527 2.2598-1.2656 0.77148 0.75586c0.2 0.2025 0.41062 0.45148 0.48437 0.58398 0.135 0.24 0.04211 0.44797-0.46289 0.73047l0.13281 0.23828 3.1895-1.7852-0.13281-0.24023c-0.42875 0.17125-0.72164 0.05383-1.6504-0.85742l-6.6016-6.3906zm79.633 0.12891c-1.5891-0.08707-3.4602 0.87023-4.7773 3.1699-1.7562 3.0662-0.96914 5.7645 0.97461 6.877 2.3925 1.37 4.0793-0.47188 5.123-2.2969l-0.55469-0.31641c-0.61875 1.05-2.0503 3.214-3.9141 2.1465-1.2812-0.735-1.0369-2.543 0.48437-5.1992 1.6812-2.935 2.787-3.883 4.002-3.1855 1.0975 0.6275 1.0655 2.5227 0.35546 4.2227l0.47461 0.27344 1.9766-3.4512-0.5293-0.30273c-0.31875 0.22-0.47102 0.36336-0.60352 0.28711-0.145-0.0825-0.54507-1.2258-1.5488-1.8008-0.43626-0.24969-0.93319-0.3948-1.4629-0.42383zm-85.221 3.4863-2.2109 1.6191 0.16211 0.2207c0.5225-0.42 0.83164-0.38367 1.0566-0.07617 0.1175 0.15875 0.18883 0.40984 0.23633 0.80859l0.2832 2.1914-2.2441-1.207c-0.29-0.165-0.43726-0.26383-0.50976-0.36133-0.14375-0.19625-0.08508-0.42828 0.29492-0.70703l-0.16211-0.2207-2.9355 2.1523 0.16211 0.2207c0.46875-0.21125 0.5843-0.1818 1.7793 0.4707l3.9395 2.1523 0.39648 3.0898c0.19875 1.5338 0.15867 1.865-0.29883 2.2188l0.16211 0.2207 2.2578-1.6562-0.16211-0.2207c-0.60125 0.44125-0.9332 0.47742-1.1582 0.16992-0.135-0.18375-0.21633-0.50226-0.29883-1.1035l-0.29688-2.3867 2.373 1.2793c0.4125 0.2275 0.70883 0.42633 0.79883 0.54883 0.12625 0.17125 0.10203 0.3957-0.32422 0.68945l0.16211 0.22266 2.8867-2.1152-0.16406-0.2207c-0.2875 0.1725-0.4975 0.11836-1.2812-0.30664l-4.771-2.606-0.32-2.521c-0.1875-1.4662-0.12391-1.9475 0.33984-2.3438l-0.16211-0.2207zm91.516 0.21875-0.37305 0.51953c0.76625 0.55 0.81492 0.90195 0.45117 1.4082l-4.334 6.0391c-0.36375 0.5075-0.71227 0.57344-1.4785 0.02344l-0.37109 0.51953 3.6836 2.6465 0.375-0.51953c-0.7675-0.55-0.81367-0.90266-0.45117-1.4102l4.332-6.0371c0.36375-0.5075 0.71297-0.57664 1.4805-0.02539l0.37109-0.51953-3.6855-2.6445zm-84.787 0.10156 2.707 2.6211-1.9531 1.0938-0.78125-3.7012 0.02734-0.01367zm90.451 3.9727-0.42969 0.47461c0.54375 0.48875 0.5025 0.92289 0.375 1.5879l-4.6992 5.2168c-0.53 0.58875-1.1975 0.59953-1.8438 0.01953l-0.42773 0.47656 2.5801 2.3223 0.42968-0.47461c-0.69125-0.62125-0.74875-1.2862-0.21875-1.875l4.0488-4.4941 0.0215 0.02148-1.7734 9.2051 0.92773 0.83594 6.0566-6.7227c0.4175-0.46375 0.81727-0.45133 1.541 0.20117l0.42773-0.47461-2.4668-2.2227-0.42774 0.47461c0.76875 0.69375 0.82305 1.089 0.4043 1.5527l-3.6094 4.0078-0.0332-0.03125 1.4473-8.002-2.3301-2.0996zm-112.4 8.733-0.314 0.371c0.1 0.445 0.18422 0.67703 0.10547 0.76953s-1.1796 0.11625-2.0371 1.125c-1.47 1.7288-0.48492 3.6055 0.45508 4.4043 2.5862 2.1988 5.3903-2.1344 7.2578-0.54688 1.0212 0.86875 0.98781 1.9396 0.32031 2.6309-1.335 1.3838-3.5755 0.1175-4.543-0.34375l-0.35352 0.41797 3.1543 2.6836 0.35547-0.41797c-0.1625-0.27875-0.34328-0.63062-0.17578-0.82812 0.23625-0.27875 1.3014-0.21375 2.1289-1.1875 1.4012-1.6475 1.1627-3.5314-0.49609-4.9414-2.7388-2.3275-5.4146 2.1149-7.2246 0.57617-0.72-0.61125-0.79664-1.557-0.24414-2.207 1.0062-1.1825 2.925-0.43117 4.25 0.45508l0.35547-0.41797-2.9941-2.543zm120.9 1.0371c-1.2011 0.02-2.577 0.51766-3.9238 1.6602-2.695 2.2862-2.8713 5.0913-1.4238 6.7988 1.7838 2.1012 3.9952 0.94273 5.5977-0.41602l-0.41211-0.48828c-0.93875 0.77625-3.0214 2.323-4.4102 0.68555-0.95625-1.1262-0.11039-2.7407 2.2246-4.7207 2.5775-2.1862 3.9382-2.7023 4.8457-1.6348 0.8175 0.965 0.14078 2.7355-1.1055 4.0918l0.35547 0.41797 3.0312-2.5703-0.39453-0.46484c-0.375 0.09875-0.56531 0.17875-0.66406 0.0625-0.10875-0.1275-0.095-1.3362-0.84375-2.2188-0.65-0.76625-1.6759-1.2231-2.877-1.2031zm6.3066 5.9199-0.52735 0.36328c0.535 0.77875 0.45906 1.126-0.0547 1.4785l-6.127 4.209c-0.515 0.35375-0.86539 0.30023-1.4004-0.47852l-0.52734 0.36133 2.5703 3.7422 0.52734-0.36328c-0.53375-0.7775-0.45836-1.1248 0.0566-1.4785l6.125-4.209c0.515-0.35375 0.8654-0.29828 1.4004 0.48047l0.52735-0.36328-2.5703-3.7422zm-135.17 2.9668-0.41602 0.63672 5.8438 7.6094c0.4525 0.5875 0.46781 1.0351 0.10156 1.7051l0.53516 0.34961 1.9844-3.0312-0.5332-0.34961c-0.45 0.6875-0.89523 1.0898-1.3027 0.82227-0.14-0.09125-0.24359-0.21281-0.37109-0.35156l-1.1641-1.418 1.5352-2.3438 2 0.47461c0.1475 0.02375 0.35961 0.08781 0.47461 0.16406 0.34375 0.225 0.19469 0.56398-0.28906 1.3027l0.53516 0.34961 2.5508-3.8965-0.53516-0.34961c-0.45125 0.5775-0.67234 0.66734-1.4336 0.49609l-9.5156-2.1699zm2.1758 2.7344 3.3516 0.77344-1.2676 1.9355-2.0996-2.6836 0.01563-0.02539zm136.94 0.06445-0.56446 0.30078c0.345 0.645 0.1568 1.0398-0.18945 1.6211l-6.1914 3.3047c-0.69875 0.37375-1.3315 0.15883-1.7402-0.60742l-0.56445 0.30078 1.6348 3.0645 0.5625-0.30274c-0.4375-0.82-0.2632-1.4634 0.43555-1.8359l5.334-2.8477 0.0156 0.02734-4.8027 8.0508 0.58985 1.1016 7.9805-4.2598c0.55125-0.29375 0.9221-0.14711 1.3809 0.71289l0.56445-0.30078-1.5644-2.9297-0.5625 0.30274c0.48749 0.91375 0.40281 1.3039-0.14844 1.5977l-4.7559 2.5371-0.0215-0.03906 4.084-7.0293-1.4766-2.7695zm-142.65 3.3574-3.4629 7.1895 3.5391 1.7051 0.24023-0.49414c-1.3612-0.825-2.6752-2.0309-1.9414-3.5547l7.3281 3.5312c0.5625 0.27 0.85555 0.68109 0.37305 1.6836l0.57617 0.27734 2.1152-4.3926-0.57617-0.27734c-0.4825 1.0012-0.98633 1.031-1.5488 0.75977l-7.3281-3.5293c0.73375-1.5238 2.4945-1.2492 3.9883-0.69922l0.23828-0.49414-3.541-1.7051zm148.03 7.1719-0.60352 0.2168c0.2475 0.6875 0.006 1.0492-0.41992 1.5742l-6.6055 2.377c-0.745 0.2675-1.3391-0.03726-1.6328-0.85352l-0.60157 0.2168 1.1738 3.2656 0.60352-0.21484c-0.315-0.87375-0.0497-1.4871 0.69531-1.7559l5.6875-2.0469 0.01 0.0293-5.9121 7.2734 0.42187 1.1738 8.5117-3.0605c0.5875-0.21125 0.93562-0.0132 1.2656 0.9043l0.60157-0.2168-1.125-3.123-0.59961 0.2168c0.35 0.97375 0.20859 1.3493-0.37891 1.5605l-5.0723 1.8223-0.0156-0.04102 5.0566-6.3672-1.0605-2.9512zm-152.25 2.043-1.5391 4.2695 0.59961 0.2168c0.32125-0.88875 0.64883-1.0296 1.2363-0.81836l6.9922 2.5215c0.5875 0.21125 0.74773 0.52922 0.42773 1.418l0.60156 0.2168 1.5391-4.2715-0.60156-0.21484c-0.32125 0.88875-0.64688 1.0277-1.2344 0.81641l-6.9922-2.5195c-0.5875-0.2125-0.74773-0.53047-0.42773-1.418l-0.60156-0.2168zm-2.4023 6.9941-0.12109 0.47266c0.28625 0.355 0.46359 0.52703 0.43359 0.64453-0.03 0.11875-1.007 0.62516-1.332 1.9102-0.55875 2.1988 1.1514 3.4502 2.3477 3.7539 3.2912 0.835 3.9011-4.29 6.2773-3.6875 1.2988 0.33 1.7423 1.3057 1.4473 2.2207-0.59 1.83-3.1592 1.6802-4.2305 1.6914l-0.13476 0.53125 4.0137 1.0195 0.13672-0.53125c-0.26875-0.17875-0.58594-0.41672-0.52344-0.66797 0.09-0.35375 1.0749-0.76266 1.3887-2.0039 0.5325-2.0962-0.5118-3.6805-2.623-4.2168-3.4838-0.88375-3.9299 4.283-6.2324 3.6992-0.91625-0.2325-1.4002-1.0475-1.1914-1.875 0.3825-1.5062 2.4376-1.6754 4.0176-1.4629l0.13476-0.53125-3.8086-0.9668zm148.64 3.377-0.625 0.13086 0.73633 3.5488 0.625-0.12891c-0.1675-0.80625-0.13571-1.4032 0.34179-1.502 0.165-0.03375 0.32297-0.02117 0.51172-0.01367l1.8262 0.18164 0.56836 2.7441-1.752 1.0781c-0.1225 0.0875-0.31742 0.19-0.45117 0.21875-0.40375 0.0825-0.53805-0.26195-0.7168-1.127l-0.62695 0.12891 0.94726 4.5645 0.62696-0.13086c-0.0888-0.72875 0.004-0.94969 0.66406-1.3672l8.2734-5.1836-0.1543-0.74609-9.5176-1.2617c-0.73625-0.09625-1.0636-0.40102-1.2773-1.1348zm4.084 2.2949 3.3848 0.41992 0.008 0.02734-2.9199 1.8203-0.47266-2.2676zm-147.1 3.725l-0.06641 0.54492 0.43945 0.05273c0.84625 0.10375 1.2993 0.28258 1.248 0.70508-0.0425 0.34875-0.51312 0.30602-1.1406 0.29102-1.9425-0.0525-2.919 0.65656-3.3027 1.9141l-0.0293-0.0039c-0.01625-1.7512-0.54711-3.0588-2.2559-3.2676-1.6475-0.2-2.8133 0.80781-3.0508 2.7578l-0.5918 4.8379 0.63477 0.07813c0.115-0.9375 0.40148-1.1473 1.0215-1.0723l7.377 0.89844c0.62 0.07625 0.84812 0.34961 0.73438 1.2871l0.63476 0.07813 0.55078-4.5059-0.63672-0.07813c-0.11375 0.9375-0.39953 1.1473-1.0195 1.0723l-3.3887-0.41211 0.02539-0.19727c0.13625-1.1188 0.7218-1.1398 3.1543-0.96484 1.3988 0.10875 2.2315-0.41938 2.3965-1.7656 0.17125-1.405-0.60226-1.9907-1.9785-2.1582l-0.75586-0.0918zm-6.2012 2.625c0.27478-0.01291 0.58805 0.0044 0.93555 0.04687 1.33 0.1625 1.8784 0.94961 1.7422 2.0684l-0.04297 0.34961-3.2656-0.39844c-0.61875-0.07625-0.84664-0.34945-0.77539-0.93945 0.09469-0.77156 0.58189-1.0882 1.4062-1.127zm161.05 0.84375-3.918 0.28906 0.041 0.54688c1.5912 0.035 3.3281 0.42633 3.4531 2.1113l-8.1094 0.59961c-0.6225 0.04625-1.0816-0.16469-1.1641-1.2734l-0.63672 0.04687 0.35938 4.8613 0.63867-0.04687c-0.0825-1.1088 0.33844-1.3854 0.96094-1.4316l8.1113-0.59766c0.12499 1.685-1.5387 2.327-3.1074 2.5957l0.041 0.54688 3.918-0.28906-0.58789-7.959zm-153.26 7.3223-4.1719 0.06641 0.0078 0.54883c1.13 0.195 3.5463 0.85766 3.5801 3.0039 0.01375 0.8825-0.24148 1.1306-0.86524 1.1406l-3.5918 0.05469c-0.0225-1.415 0.41312-1.8157 1.7031-2.0957l-0.0098-0.54883-4.293 0.06836 0.0098 0.54883c1.3888 0.23625 1.8369 0.62477 1.8594 2.041l-3.1055 0.04883c-0.62375 0.01-0.88594-0.23024-0.89844-1.0215-0.0325-2.01 1.9045-2.7396 3.332-3.0059l-0.0098-0.54883-4.0176 0.0625 0.125 7.8867 0.63867-0.01172c-0.015-0.94375 0.23953-1.1912 0.86328-1.2012l7.4297-0.11719c0.62375-0.01 0.88539 0.23008 0.90039 1.1738l0.64062-0.0098-0.12695-8.084zm143.42 2.6387-0.44336 8.0684 4.1641 0.23047 0.0293-0.54688c-1.1125-0.275-3.4749-1.1055-3.3574-3.248 0.0488-0.88125 0.32157-1.1131 0.94532-1.0781l3.5859 0.19922c-0.0775 1.4138-0.5414 1.7832-1.8476 1.9707l-0.0293 0.54688 4.2871 0.23633 0.0293-0.54688c-1.3688-0.335-1.7884-0.75547-1.7109-2.168l3.1016 0.16992c0.6225 0.035 0.86797 0.29203 0.82422 1.082-0.11 2.0062-2.0946 2.5999-3.5371 2.7637l-0.0293 0.54688 4.0137 0.22071 0.43164-7.8731-0.63672-0.03516c-0.0525 0.9425-0.32547 1.1717-0.94922 1.1367l-7.416-0.4082c-0.62375-0.03375-0.86765-0.28992-0.8164-1.2324l-0.63867-0.03516zm-153.04 7.1348-0.63281 0.08984 0.39844 2.834 0.63281-0.0879c-0.10875-0.76875 0.03313-1.0809 0.51562-1.1484 0.18125-0.0263 0.36594-0.0206 0.64844 0.0156l5.5957 0.85938 0.0039 0.0312-4.9746 2.2363c-0.2325 0.095-0.59344 0.26774-0.83594 0.30274-0.4825 0.0675-0.65953-0.215-0.76953-1l-0.63477 0.0898 0.62695 4.4648 0.60352-0.0859c-0.0675-0.6975-0.03375-0.90274 0.5-1.1465l8.7383-4.041-0.14844-1.0566-9.3047-1.416c-0.55125-0.0925-0.85164-0.37266-0.96289-0.94141zm152.43 2.5664-0.67382 3.4043 0.6289 0.125c0.18-0.91125 0.7225-1.3022 1.5-1.1484l5.9277 1.1738-0.006 0.0312-8.8106 3.1914-0.24219 1.2246 8.8711 1.7539c0.6125 0.12125 0.80789 0.47149 0.61914 1.4277l0.62695 0.125 0.64453-3.2578-0.62695-0.125c-0.20125 1.0162-0.51445 1.2645-1.127 1.1445l-5.2871-1.0469 0.008-0.0449 7.6113-2.8535 0.60937-3.0781-0.62695-0.125c-0.14125 0.7175-0.53563 0.90476-1.1719 1.1348l-6.8848-1.3613c-0.77625-0.15375-1.1297-0.72102-0.96094-1.5723l-0.62891-0.12305zm-141.3 5.0938-0.62109 0.15039c0.22125 0.91625 0.02742 1.2131-0.58008 1.3594l-7.2227 1.7402c-0.60625 0.14625-0.91352-0.0317-1.1348-0.94922l-0.62109 0.15039 1.0605 4.4082 0.62109-0.14844c-0.22-0.9175-0.02547-1.2151 0.58203-1.3613l7.2207-1.7383c0.60625-0.14625 0.91547 0.0298 1.1367 0.94727l0.62109-0.14844-1.0625-4.4102zm139.07 5.0176-0.17382 0.51953c0.255 0.19875 0.55125 0.45883 0.46875 0.70508-0.11625 0.34625-1.1284 0.68008-1.5371 1.8926-0.68875 2.0488 0.23117 3.7086 2.2949 4.4023 3.405 1.1462 4.2448-3.9704 6.4961-3.2129 0.895 0.30125 1.3155 1.1495 1.043 1.957-0.495 1.4725-2.5565 1.4875-4.1152 1.1562l-0.17578 0.51758 3.7226 1.2539 0.15625-0.46094c-0.25875-0.37625-0.42156-0.56078-0.38281-0.67578 0.0387-0.11625 1.0502-0.54578 1.4727-1.8008 0.72375-2.15-0.88399-3.5281-2.0527-3.9219-3.2188-1.0825-4.2153 3.9798-6.5391 3.1973-1.27-0.42625-1.6379-1.4342-1.2754-2.3242 0.72875-1.78 3.2789-1.4333 4.3476-1.3633l0.17579-0.52149-3.9258-1.3203zm-137.41 1.3301-8.498 3.0898c-0.5875 0.21375-0.93383 0.0159-1.2676-0.90039l-0.59961 0.21875 1.1328 3.1191 0.59961-0.21875c-0.35375-0.9725-0.2132-1.348 0.37305-1.5605l5.0645-1.8418 0.01563 0.0449-5.0332 6.3789 1.0703 2.9492 0.60156-0.21875c-0.25-0.68625-0.009-1.0499 0.41602-1.5762l6.5938-2.3984c0.74375-0.27 1.3385 0.0314 1.6348 0.84765l0.60156-0.21875-1.1855-3.2617-0.59961 0.21875c0.31625 0.87375 0.05234 1.4846-0.69141 1.7559l-5.6777 2.0645-0.01172-0.0293 5.8867-7.2891-0.42578-1.1738zm134.81 6.2246-1.8574 4.1387 0.58398 0.26172c0.38625-0.86125 0.72102-0.97766 1.291-0.72266l6.7812 3.041c0.57 0.255 0.70461 0.58406 0.31836 1.4453l0.58398 0.26172 1.8574-4.1406-0.58398-0.26171c-0.38625 0.86125-0.72102 0.9789-1.291 0.72265l-6.7812-3.041c-0.57-0.25625-0.70461-0.58407-0.31836-1.4453l-0.58398-0.25976zm-132.39 4.0996c-0.38992 0.039-0.79758 0.16922-1.2207 0.39453l-5.6035 2.9863c-0.60375 0.32125-0.99211 0.013-1.3496-0.65821l-0.51172 0.26954 1.5605 2.9297 0.50976-0.27148c-0.41625-0.81375-0.41547-1.3303 0.26953-1.6953l5.6152-2.9942c1.1962-0.63625 2.2467-0.0573 2.7617 0.91016 0.60125 1.1288 0.01438 2.0978-1.0469 2.6641l-5.6699 3.0195c-0.5775 0.3075-0.8557 0.11-1.3145-0.75l-0.50977 0.27343 2.1914 4.1113 0.50976-0.27344c-0.32625-0.77375-0.39672-1.1677 0.20703-1.4902l5.8027-3.0918c1.3175-0.70125 1.8792-2.1713 0.76172-4.2676-0.78375-1.4719-1.7931-2.1834-2.9629-2.0664zm129.93 1.1992-0.27149 0.47656c0.2125 0.24375 0.45297 0.55625 0.32422 0.78125-0.18125 0.3175-1.2393 0.45125-1.873 1.5625-1.0725 1.8775-0.4889 3.6849 1.4024 4.7637 3.1225 1.7812 4.9323-3.0798 6.9961-1.9023 0.82 0.46875 1.069 1.3838 0.64649 2.125-0.77 1.3488-2.7955 0.96414-4.2617 0.33789l-0.26 0.48 3.4121 1.9473 0.24414-0.42383c-0.18125-0.41875-0.30929-0.63008-0.24804-0.73633 0.06-0.10625 1.1374-0.33438 1.7949-1.4844 1.1238-1.9712-0.19047-3.6329-1.2617-4.2441-2.95-1.6825-4.9032 3.0939-7.0332 1.8789-1.1638-0.66375-1.3315-1.7248-0.80274-2.5273 1.0562-1.6075 3.493-0.77696 4.5293-0.50196l0.27148-0.47656-3.5976-2.0527zm-121.34 15.7c-0.66891-0.042-1.354 0.17031-1.8965 0.64844-1.085 0.9575-1.1887 2.6123-0.23242 3.6973 0.95625 1.085 2.6103 1.1887 3.6953 0.23242 1.085-0.95625 1.1887-2.6103 0.23242-3.6953-0.47812-0.5425-1.1299-0.84078-1.7988-0.88281zm114.18 0.95117c-0.66954 0.0308-1.327 0.31719-1.8145 0.85156-0.975 1.0688-0.90078 2.7242 0.16797 3.6992 1.0688 0.97375 2.7262 0.89883 3.7012-0.16992s0.89758-2.7242-0.16992-3.6992c-0.53437-0.4875-1.2152-0.71242-1.8848-0.68164zm-104.11 6.25-0.16211 0.22266c0.59 0.455 0.49547 0.83898 0.10547 1.3652l-4.6484 6.293c-0.4075 0.55125-0.75398 0.63625-1.3027 0.25l-0.16211 0.2207 1.9336 1.4297 0.16406-0.2207c-0.5875-0.435-0.57922-0.80625-0.13672-1.4062l4.6328-6.2695 0.02539 0.0195-3.0195 9.1074 0.18359 0.13477 7.9141-5.584 0.02539 0.0176-4.6719 6.3164c-0.46125 0.625-0.77938 0.74945-1.4531 0.25195l-0.16211 0.2207 3.1953 2.3613 0.16406-0.2207c-0.5575-0.44875-0.42406-0.86203-0.0078-1.4258l4.5059-6.0957c0.47125-0.6375 0.82945-0.71172 1.3457-0.38672l0.16406-0.22265-2.5098-1.8535-5.752 4.041-0.02344-0.0176 2.2109-6.6562-2.5586-1.8926zm93.561 0.8418-3.123 2.4297 0.16797 0.21679c0.615-0.4975 1.0092-0.18789 1.3555 0.25586l4.7676 6.1289c0.44875 0.57625 0.42781 0.99695-0.0859 1.377l0.16797 0.2168 3.123-2.4316-0.16602-0.21485c-0.5775 0.44875-0.94187 0.32625-1.3906-0.25l-4.7949-6.1621c-0.44875-0.5775-0.34102-1.0096 0.14648-1.3496l-0.16797-0.21679zm-9.2676 6.5527-2.4277 1.2715 0.12695 0.24414c0.58-0.3375 0.88235-0.25547 1.0586 0.082 0.0913 0.175 0.12382 0.43148 0.11132 0.83398l-0.0488 2.209-2.0391-1.5274c-0.2625-0.20625-0.39297-0.32804-0.44922-0.43554-0.11375-0.21625-0.0223-0.43555 0.39649-0.6543l-0.12695-0.24414-3.2266 1.6914 0.12891 0.24219c0.495-0.13875 0.60445-0.0933 1.6894 0.73047l3.5742 2.7188-0.0723 3.1152c-0.0325 1.5475-0.12071 1.8679-0.62696 2.1504l0.12696 0.24414 2.4824-1.3008-0.12696-0.24219c-0.66 0.34625-0.99562 0.33039-1.1719-0.006-0.10625-0.2025-0.13961-0.52852-0.13086-1.1348l0.0644-2.4062 2.1562 1.6211c0.37375 0.285 0.63703 0.52711 0.70703 0.66211 0.0987 0.18875 0.0424 0.40656-0.42382 0.63281l0.12695 0.24414 3.1699-1.6602-0.125-0.24414c-0.31125 0.12875-0.5114 0.0446-1.2226-0.49414l-4.3203-3.291 0.0606-2.541c0.0337-1.48 0.16875-1.9458 0.6875-2.2695l-0.12891-0.24219zm6.28 0.52c-0.28909-0.001-0.58211 0.0805-0.8418 0.2539-0.6925 0.46125-0.88828 1.3974-0.42578 2.0898 0.4625 0.6925 1.4084 0.88047 2.0996 0.41797 0.6925-0.46125 0.87266-1.4012 0.41016-2.0938-0.28907-0.43282-0.76038-0.66582-1.2422-0.66797zm-75.826 1.8262-0.10938 0.25391c0.755 0.32625 0.75805 0.74125 0.49805 1.3438l-3.0723 7.1172c-0.29 0.67125-0.65297 0.86227-1.3242 0.57227l-0.10938 0.25195 3.3848 1.4609c3.315 1.4312 5.3202-0.63977 6.3164-2.9473 1.08-2.5038 0.86203-5.2687-1.9492-6.4824l-3.6348-1.5703zm-5.4375 1.3535c-0.48291 0.0383-0.9375 0.30585-1.1914 0.75976-0.40625 0.725-0.14492 1.6511 0.58008 2.0586 0.72625 0.40625 1.6426 0.14032 2.0488-0.58593 0.40625-0.72625 0.15008-1.6367-0.57617-2.043-0.27234-0.15235-0.57158-0.21241-0.86133-0.18945zm8.0527 0.39062 0.37891 0.16211c0.67125 0.29 1.0509 0.7532 1.1621 1.0332 0.37375 0.94125-0.02664 2.5609-0.74414 4.2246-0.55625 1.2862-1.5006 3.053-2.4219 3.418-0.32 0.1275-0.81469 0.19664-1.4297-0.0684-0.49-0.2125-0.54305-0.43445-0.2168-1.1894l3.271-7.58zm58.082 0.35547-2.5781 0.92773 0.0918 0.25782c0.62-0.25625 0.90836-0.1329 1.0371 0.2246 0.0675 0.18751 0.0636 0.44626-0.004 0.84376l-0.34961 2.1797-1.8086-1.791c-0.2325-0.24-0.34743-0.37844-0.38868-0.49219-0.0825-0.23 0.0387-0.4357 0.48243-0.5957l-0.0918-0.25586-3.4258 1.2305 0.0937 0.25976c0.51-0.07 0.61101-0.0119 1.5723 0.95313l3.168 3.1816-0.49609 3.0762c-0.2425 1.5288-0.37531 1.8349-0.91406 2.0449l0.0918 0.25781 2.6367-0.94922-0.0937-0.25781c-0.7025 0.2525-1.0314 0.19149-1.1602-0.16601-0.0775-0.215-0.0639-0.54063 0.0273-1.1406l0.39258-2.375 1.9141 1.9004c0.33 0.335 0.55687 0.6082 0.60937 0.75196 0.0725 0.19999-0.0153 0.41031-0.50781 0.57031l0.0937 0.25781 3.3672-1.2109-0.0937-0.25781c-0.325 0.085-0.51133-0.0263-1.1426-0.65625l-3.8281-3.8496 0.4082-2.5098c0.235-1.46 0.43273-1.9023 0.99023-2.1523l-0.0937-0.25781zm-47.346 2.7715c-2.0647-0.0312-4.0295 1.7317-4.7656 4.4453-0.80375 2.9688 0.32695 5.4831 2.752 6.1406 1.2488 0.34 2.5452 0.0441 3.5527-0.81836l0.20117-0.75c-1.2512 0.89125-2.0648 1.3334-3.1523 1.0371-0.52875-0.1425-0.89461-0.47742-1.1309-0.88867-0.4925-0.85875-0.48484-2.1662 0.09766-4.3125 0.53375-1.9688 1.2237-3.2328 2.1387-3.7578 0.44875-0.2575 0.94914-0.3575 1.4629-0.21875 1.1612 0.315 1.8345 1.7284 1.5957 3.3672l0.26562 0.0703 0.91211-3.3652-0.26562-0.0703c-0.22375 0.475-0.36398 0.64203-0.58398 0.58203-0.54375-0.1475-0.85586-0.97344-2.1934-1.3359-0.29578-0.0802-0.59176-0.12054-0.88672-0.125zm37.969 0.4043-2.6816 0.56641 0.0566 0.26757c0.65-0.1675 0.91734-0.005 0.99609 0.36719 0.0413 0.19375 0.002 0.45024-0.11914 0.83399l-0.64453 2.1133-1.5488-2.0234c-0.19625-0.26875-0.28945-0.42102-0.31445-0.54102-0.05-0.23875 0.0973-0.42398 0.5586-0.52148l-0.0567-0.26953-3.5625 0.7539 0.0567 0.26758c0.51374 0 0.60843 0.0746 1.4297 1.1621l2.7031 3.584-0.91016 2.9785c-0.45 1.4812-0.625 1.7674-1.1875 1.9024l0.0566 0.26757 2.7422-0.58007-0.0566-0.26758c-0.73 0.155-1.0482 0.0515-1.127-0.32227-0.0475-0.2225 0.008-0.54765 0.18164-1.1289l0.71289-2.2969 1.6367 2.1445c0.28125 0.37625 0.46945 0.67742 0.50195 0.82617 0.0438 0.20875-0.0701 0.40555-0.58008 0.49805l0.0566 0.26758 3.502-0.74024-0.0566-0.26757c-0.33375 0.04-0.50421-0.0974-1.043-0.8086l-3.2676-4.3379 0.74804-2.4297c0.4325-1.415 0.68719-1.8261 1.2734-1.9961l-0.0566-0.26953zm-27.848 1.5273c-2.2432-0.008-4.175 2.0938-4.5605 5.082-0.39375 3.0525 1.0727 5.3916 3.5664 5.7129 1.2838 0.165 2.525-0.30438 3.4062-1.2969l0.09961-0.77148c-1.1188 1.055-1.8649 1.604-2.9824 1.459-0.54375-0.07-0.95344-0.35352-1.2422-0.72852-0.605-0.78499-0.77789-2.0808-0.49414-4.2871 0.26125-2.0238 0.77312-3.3706 1.6094-4.0156 0.40875-0.31625 0.89117-0.48351 1.4199-0.41601 1.1938 0.15375 2.0548 1.4616 2.041 3.1191l0.27148 0.0351 0.44531-3.459-0.27148-0.0352c-0.1575 0.5025-0.27375 0.68625-0.5 0.65625-0.55875-0.0712-0.98047-0.84594-2.3555-1.0234-0.15195-0.0196-0.30358-0.0307-0.45312-0.0312zm13.412 0.53125-0.27344 0.002c-0.0875 0.5175-0.17875 0.71554-0.40625 0.71679-0.56375 0.002-1.0838-0.70867-2.4688-0.70117-2.4512 0.015-4.3098 2.4626-4.291 5.6738 0.01875 3.075 1.7817 5.1947 4.293 5.1797 1.2938-0.007 2.4624-0.63828 3.2012-1.7383l-0.0039-0.77539c-0.96625 1.1925-1.6335 1.8355-2.7598 1.8418-0.5475 0.004-0.98992-0.22219-1.3262-0.55468-0.705-0.69626-1.048-1.9572-1.0605-4.1797-0.0125-2.04 0.31344-3.4434 1.0547-4.1934 0.36375-0.3675 0.81906-0.59906 1.3516-0.60156 1.2025-0.007 2.23 1.1739 2.4375 2.8164h0.27344l-0.02148-3.4863zm4.625 3.416c-0.0996-0.009-0.2032-0.01-0.30664 0.002-0.8275 0.0913-1.4291 0.83266-1.3379 1.6602 0.09125 0.8275 0.84438 1.4291 1.6719 1.3379 0.8275-0.0913 1.4174-0.84242 1.3262-1.6699-0.0798-0.72407-0.65627-1.2673-1.3535-1.3301z" transform="matrix(.8 0 0 -.8 334.52 515.98)" fill="#0c2340"/><path d="m382.93 468.51c0.068 0.878 0.895 0.505 0.895 0.505 5.789-3.659 14.438-5.172 24.111 2.228 9.673-7.4 18.804-6.114 24.593-2.455 0 0 0.851 0.357 0.919-0.521l-0.001-37.157c-0.16-7.909-5.088-11.01-8.785-11.729-3.929-0.951-6.804-0.248-10.192-0.135-4.459-0.135-6.217-1.466-6.217-1.466s-1.759 1.286-6.218 1.421c-3.388-0.114-6.263-0.816-10.192 0.135-3.697 0.719-8.728 3.82-8.889 11.729l-0.024 37.445z" fill="#0c2340"/><path d="m84.807 62.629c-1.3475 0.55625-3.5952 1.7224-5.5215 1.7012l-0.08398 54.971c2.4125 0.5225 3.2596-0.29 5.5059-0.125l0.09961-56.547zm-17.363 0.5v53.92s1.8759 2.1278 5.2734 2.0703l-0.01953-54.738c-2.4588-0.32875-3.6102-0.2457-5.2539-1.252zm67.43 44.918c-0.1175-0.0138-0.15805-0.013-0.2168 0.11328l-0.4082 0.87695c-0.0662 0.14375-0.0527 0.16039 0.041 0.24414l4.6562 4.1836c0.03 0.0238 0.0845 0.0809 0.12696 0.0996 0.0625 0.0188 0.10429-0.0228 0.15429-0.13281l0.39649-0.85156c0.0588-0.1275 0.0405-0.15477-0.0957-0.25977l-1.2051-0.97851 0.67382-1.4512 1.5391 0.26368c0.17125 0.0275 0.20343 0.0232 0.24218-0.0606l0.43946-0.94336c0.04-0.085 0.0617-0.17867 0.0117-0.20117-0.0337-0.0162-0.11289-0.0211-0.1504-0.0273l-6.2051-0.875zm0.39062 1.0098c0.37375 0.1225 0.90188 0.28898 1.2656 0.36524l1.6113 0.32812-0.51757 1.1113-1.2774-1.0449c-0.2975-0.24125-0.75109-0.54344-1.0898-0.74219l0.008-0.0176zm-2.334 2.7637c-0.0386 0.0112-0.068 0.0491-0.10742 0.11719l-0.33985 0.58789c-0.0787 0.13625-0.0747 0.18188 0.0703 0.26563l2.5488 1.4746c0.225 0.13 0.80305 0.43133 1.0606 0.58008l-0.01 0.0156c-0.385-0.0937-0.8832-0.17797-1.4394-0.19922l-3.2598-0.11328c-0.11624-0.004-0.14289 0.002-0.21289 0.12305l-0.38085 0.6582c-0.0788 0.1375-0.0727 0.18383 0.0723 0.26758l5.1699 2.9902c0.145 0.0837 0.18688 0.0659 0.26563-0.0703l0.33984-0.58789c0.0787-0.13625 0.0734-0.18383-0.0703-0.26758l-2.8965-1.6738c-0.37-0.215-0.79343-0.42633-0.89843-0.48633l0.01-0.0156c0.40875 0.12875 0.76867 0.15312 1.3574 0.17187l3.5938 0.11524c0.12375 0.008 0.15375-0.007 0.21875-0.11914l0.3086-0.5293c0.0837-0.145 0.0727-0.18383-0.0723-0.26758l-5.1699-2.9902c-0.0725-0.0419-0.11961-0.0581-0.1582-0.0469zm-81.84 0.23438c-0.04625 0.0288-0.09367 0.0933-0.13867 0.14453l-4.0957 4.5488c-0.095 0.0937-0.10844 0.12406-0.02344 0.25781l0.57031 0.89258c0.08375 0.13375 0.11219 0.12664 0.24219 0.0879l5.9238-1.7832c0.065-0.0187 0.14391-0.0364 0.19141-0.0664 0.055-0.035 0.01523-0.13063-0.0098-0.20313l-0.35156-0.74414c-0.02125-0.0312-0.02055-0.0651-0.06055-0.1289-0.025-0.0388-0.04922-0.0776-0.23047-0.0176l-3.6348 1.248c-0.29125 0.0975-0.95766 0.34679-1.3477 0.52929l-0.01172-0.0156c0.33-0.27625 0.85922-0.74399 1.0742-0.95899l2.7246-2.6738c0.13625-0.13126 0.10703-0.17876 0.08203-0.21876-0.04-0.0625-0.06984-0.0742-0.08984-0.10546l-0.63281-0.69922c-0.05625-0.0525-0.12664-0.13-0.18164-0.0937zm3.1504 4.543c-0.03969-0.007-0.08484 0.0151-0.15234 0.0644l-0.4082 0.29297c-0.135 0.0975-0.13547 0.14273-0.04297 0.27148l0.29883 0.41602-3.7148 2.6816-0.29883-0.41406c-0.0925-0.12875-0.13719-0.14172-0.27344-0.043l-0.40625 0.29101c-0.13625 0.0988-0.13742 0.14469-0.04492 0.27344l1.332 1.8477c0.0925 0.1275 0.13844 0.14047 0.27344 0.043l0.4082-0.29297c0.135-0.0975 0.13547-0.14594 0.04297-0.27344l-0.30078-0.41406 3.7168-2.6816 0.29883 0.41406c0.0925 0.12875 0.13844 0.14172 0.27344 0.043l0.40625-0.29297c0.135-0.0975 0.13742-0.14469 0.04492-0.27344l-1.334-1.8457c-0.04625-0.0637-0.07945-0.10008-0.11914-0.10742zm76.09 0.30664c-0.12875-0.0925-0.9786 0.39687-1.4648 1.0781-0.965 1.355-0.50273 2.7252 1.291 4.0039 1.8325 1.305 3.1919 1.2231 4.1406-0.10938 0.44249-0.62125 0.80773-1.7093 0.49023-1.9355l-2.1055-1.5c-0.13625-0.0962-0.18023-0.0819-0.27148 0.0469l-0.93946 1.3164c-0.0925 0.12875-0.0913 0.17594 0.0449 0.27343l0.5 0.35547c0.13626 0.0962 0.18094 0.0838 0.27344-0.0449l0.4043-0.56836 1.0977 0.78125c-0.0188 0.09-0.0688 0.35156-0.26758 0.63282-0.5825 0.81749-1.4711 0.47992-2.6524-0.36133-1.1588-0.82625-1.7016-1.5869-1.1504-2.3594 0.36625-0.515 1.0027-0.7018 1.0352-0.74805 0.0212-0.03 0.0112-0.0824-0.0176-0.13867l-0.32031-0.60351c-0.04-0.0737-0.0641-0.10289-0.0879-0.11914zm-73.781 2.8574c-0.04078-0.006-0.08602 0.0191-0.15039 0.0723l-4.6094 3.8066c-0.1225 0.10126-0.12664 0.15415-0.02539 0.2754l0.90625 1.0976c1.0538 1.2762 2.1632 1.7586 4.2207 0.0586 1.9862-1.64 1.8383-2.7238 0.70703-4.0938l-0.91797-1.1113c-0.05375-0.0644-0.09008-0.0998-0.13086-0.10547zm0.02734 1.5547 0.21289 0.25781c0.66375 0.80375 0.55789 1.4088-0.72461 2.4688-1.37 1.1312-1.9699 1.1186-2.6387 0.30859l-0.21484-0.25586 3.3652-2.7793zm69.342 0.77734c-0.0352 0.005-0.069 0.0276-0.11524 0.0801l-0.63671 0.72656c-0.105 0.11875-0.0956 0.13859-0.0293 0.24609l3.291 5.3223c0.0225 0.0312 0.0607 0.10086 0.0957 0.13086 0.055 0.0362 0.10484 0.006 0.18359-0.084l0.61914-0.70507c0.0925-0.105 0.0837-0.13664-0.0176-0.27539l-0.88086-1.2793 1.0547-1.2012 1.4024 0.68554c0.15625 0.075 0.19 0.0778 0.25 0.008l0.6875-0.78125c0.0613-0.07 0.10765-0.15196 0.0664-0.18946-0.0288-0.0237-0.10297-0.0528-0.13672-0.0703l-5.707-2.582c-0.0544-0.0225-0.0918-0.0359-0.12695-0.0312zm0.2168 1.1133c0.325 0.22125 0.78578 0.52688 1.1133 0.70313l1.4531 0.76757-0.80859 0.92188-0.9336-1.3613c-0.2175-0.31625-0.56718-0.73258-0.83593-1.0176l0.0117-0.0137zm-66.268 0.47266c-0.04016-0.002-0.08258 0.0259-0.14258 0.084l-0.36133 0.34571c-0.12 0.11625-0.11586 0.16164-0.0059 0.27539l0.35352 0.36914-3.3027 3.1738-0.35352-0.36914c-0.10875-0.11375-0.15609-0.12015-0.27734-0.004l-0.36133 0.34765c-0.12125 0.115-0.11391 0.16164-0.0039 0.27539l1.5762 1.6426c0.11 0.11375 0.15539 0.12016 0.27539 0.004l0.357-0.34c0.12125-0.11625 0.11461-0.16164 0.0059-0.27539l-0.35352-0.36914 3.3027-3.1719 0.35547 0.36718c0.10875 0.11375 0.15539 0.12211 0.27539 0.006l0.36133-0.34765c0.12125-0.11625 0.11586-0.16164 0.0059-0.27539l-1.578-1.64c-0.05438-0.0569-0.09266-0.0863-0.13281-0.0879zm63.208 1.58c-0.0486-0.0142-0.0897 0.006-0.14843 0.0586l-0.66407 0.59571c-0.125 0.11125-0.12085 0.13101-0.0683 0.25976l0.97265 2.2715c0.25625 0.59375 0.32149 0.72375 0.52149 1.0312l-0.0137 0.0117c-0.2825-0.23375-0.61367-0.45024-0.95117-0.64649l-2.123-1.2422c-0.1275-0.0737-0.14-0.0753-0.25 0.0234l-0.66797 0.5957c-0.1175 0.105-0.12492 0.15165-0.0137 0.2754l3.7891 4.6289c0.105 0.13 0.15984 0.12188 0.27734 0.0156l0.50391-0.45313c0.11875-0.105 0.12133-0.14344 0.0176-0.27344l-2.0312-2.4121c-0.21625-0.25625-0.75602-0.87109-0.97852-1.1211l0.0137-0.0137c0.265 0.2125 0.9161 0.6918 1.2148 0.87305l1.6113 0.99023c0.115 0.0725 0.13836 0.0874 0.25586-0.0176l0.43164-0.38476c0.11875-0.105 0.10563-0.13266 0.0469-0.25391l-0.78516-1.7285c-0.1475-0.31875-0.54922-1.0184-0.73047-1.3047l0.0137-0.0137c0.22375 0.25 0.77461 0.85391 1.0058 1.0977l2.1543 2.2988c0.11125 0.125 0.15985 0.12062 0.27735 0.0156l0.60937-0.54687c0.1175-0.105 0.12688-0.15039 0.0156-0.27539l-4.1113-4.2051c-0.0906-0.0869-0.14672-0.13617-0.19532-0.15039zm-61.061 0.67188c-0.03297 0.002-0.06562 0.0261-0.10938 0.0742l-0.53516 0.59375c-0.08625 0.0975-0.08453 0.13711 0.01172 0.22461l0.90625 0.81446-3.3848 3.7578c-0.1125 0.12375-0.10258 0.16914 0.01367 0.27539l0.64258 0.57812c0.1175 0.105 0.16484 0.10813 0.27734-0.0156l3.3828-3.7559 0.85742 0.76953c0.055 0.05 0.12961 0.11945 0.25586 0.0332l0.63867-0.41406c0.05625-0.035 0.07617-0.0431 0.10742-0.0781 0.055-0.0625 0.03328-0.10672-0.10547-0.23047l-2.8438-2.5625c-0.04812-0.0437-0.08226-0.0662-0.11523-0.0644zm30.842 5.0156c-0.1575-0.006-0.19758 0.02-0.20508 0.1875l-0.26367 5.9727c-0.0075 0.1575 0.0268 0.19757 0.18555 0.20507l1.5234 0.0664c1.1988 0.0538 2.3148-0.14797 2.3848-1.6992 0.04625-1.0675-0.6625-1.444-1.0938-1.584 0.36125-0.16125 0.96852-0.43133 1.0098-1.3613 0.06625-1.495-1.1905-1.6807-2.0918-1.7207l-1.4492-0.0664zm-4.1699 0.23438-0.96094 0.10156c-0.1575 0.0163-0.16375 0.0364-0.1875 0.16015l-1.1953 6.1445c-0.0062 0.0387-0.02523 0.11516-0.02148 0.16016 0.01625 0.0637 0.07531 0.077 0.19531 0.0644l0.93359-0.0976c0.13875-0.015 0.15508-0.0448 0.17383-0.21485l0.2207-1.5371 1.5898-0.16796 0.56445 1.4551c0.06375 0.16125 0.08523 0.18774 0.17774 0.17774l1.0352-0.10938c0.09125-0.01 0.18273-0.0388 0.17773-0.0937-0.005-0.0375-0.03898-0.10828-0.05273-0.14453l-2.4395-5.7715c-0.04875-0.1075-0.07219-0.14195-0.21094-0.12695zm9.5742 0.10742c-0.15625-0.02-0.1968 0.004-0.2168 0.16992l-0.06055 0.49805c-0.02125 0.16625 0.01242 0.19875 0.16992 0.21875l0.50781 0.0625-0.55859 4.5508-0.50781-0.0625c-0.1575-0.02-0.19875 0.004-0.21875 0.16992l-0.06055 0.49805c-0.02125 0.165 0.01242 0.19875 0.16992 0.21875l2.262 0.27c0.1575 0.02 0.1968-0.004 0.2168-0.16992l0.06054-0.5c0.02-0.16625-0.0124-0.19805-0.16998-0.2168l-0.50586-0.0625 0.55859-4.5508 0.50788 0.0625c0.1575 0.0187 0.1975-0.004 0.21875-0.16992l0.0586-0.5c0.0212-0.16625-0.0124-0.19805-0.16992-0.2168l-2.2618-0.27734zm4.2441 0.58593c-0.155-0.03-0.19726-0.009-0.22851 0.15625l-1.1191 5.8691c-0.0312 0.16501-0.00071 0.19852 0.15429 0.22852l3.0137 0.57422c0.1375 0.0262 0.16743 0.0118 0.23243-0.12695l0.30468-0.66016c0.015-0.035 0.036-0.0877 0.041-0.11523 0.0138-0.0725-0.0131-0.1254-0.14063-0.1504l-2.2012-0.41796 0.94727-4.9668c0.0312-0.165 0-0.19852-0.15625-0.22852l-0.84766-0.16211zm-8.6348 0.0957 0.39062 0.0176c0.51125 0.0225 0.9032 0.23531 0.87695 0.82031-0.0325 0.73375-0.50328 0.85312-1.0508 0.82812l-0.28906-0.0117 0.07227-1.6543zm-10.965 0.0527c-0.23852 0.0123-0.46078 0.0512-0.63672 0.084l-1.4805 0.27539c-0.15625 0.03-0.1875 0.0635-0.15625 0.22851l1.0977 5.877c0.03 0.165 0.07352 0.185 0.22852 0.15625l0.84961-0.15821c0.15625-0.0288 0.1875-0.0635 0.15625-0.22851l-0.44727-2.3945 0.43945-0.0801 1.6934 2.2266c0.12375 0.1575 0.21547 0.25164 0.26172 0.24414 0.0375-0.007 0.09-0.0248 0.125-0.041l0.72656-0.36328c0.08625-0.045 0.17211-0.0895 0.16211-0.14453-0.01-0.055-0.06922-0.1182-0.10547-0.1582l-1.8164-2.1875c0.305-0.2375 0.94656-0.70672 0.72656-1.8867-0.24094-1.2881-1.1087-1.486-1.8242-1.4492zm5.3242 0.14063c0.0875 0.38375 0.21859 0.92218 0.33984 1.2734l0.54688 1.5488-1.2207 0.12891 0.23828-1.6328c0.05375-0.38 0.08312-0.92196 0.07813-1.3145l0.01758-0.004zm-9.1797 0.64843c-0.035-0.0198-0.08391-0.0135-0.16016 0.006l-2.209 0.55469c-0.15375 0.0387-0.18188 0.0738-0.14062 0.23633l0.12305 0.48633c0.04125 0.1625 0.08383 0.18133 0.23633 0.14258l0.49609-0.125 1.1172 4.4453-0.49609 0.125c-0.15375 0.0375-0.18188 0.0719-0.14062 0.23437l0.121 0.47c0.04125 0.1625 0.08453 0.18133 0.23828 0.14258l2.209-0.55469c0.1525-0.0375 0.18188-0.0738 0.14062-0.23633l-0.12305-0.48632c-0.04-0.1625-0.08258-0.18133-0.23633-0.14258l-0.49609 0.125-1.1191-4.4434 0.49805-0.125c0.15375-0.0388 0.18062-0.0751 0.14062-0.23633l-0.12305-0.48828c-0.02-0.0812-0.04117-0.12664-0.07617-0.14649zm27.877 0c-0.035 0.0197-0.0549 0.0652-0.0762 0.14649l-0.125 0.48633c-0.0425 0.1625-0.0151 0.19953 0.13867 0.23828l0.49609 0.12695-1.1465 4.4375-0.49414-0.12695c-0.15375-0.04-0.19704-0.0219-0.23828 0.14062l-0.12696 0.48633c-0.0413 0.1625-0.0119 0.19758 0.14063 0.23633l2.207 0.57031c0.1525 0.04 0.19508 0.0238 0.23633-0.13867l0.12695-0.48633c0.0413-0.1625 0.0112-0.19953-0.14258-0.23828l-0.49414-0.12891 1.1465-4.4375 0.49415 0.12696c0.15375 0.04 0.19773 0.0238 0.24023-0.13867l0.125-0.48633c0.0425-0.1625 0.0119-0.19953-0.14062-0.23828l-2.207-0.57032c-0.0763-0.02-0.12515-0.0255-0.16015-0.006zm-24.219 0.22461c0.35584-0.0199 0.67844 0.0893 0.78906 0.68555 0.1575 0.84125-0.32812 1.0255-0.92188 1.1367l-0.23828 0.0449-0.32617-1.7539 0.33789-0.0645c0.11906-0.0222 0.24076-0.0422 0.35938-0.0488zm-8.0742 0.88672-0.84961 0.27539c-0.15875 0.0513-0.16102 0.0734-0.16602 0.21094l-0.03125 2.4727c-0.005 0.64625 0.0037 0.78984 0.0625 1.1523l-0.01758 0.004c-0.165-0.3275-0.38062-0.65836-0.60938-0.97461l-1.4395-1.9961c-0.08625-0.11875-0.09898-0.12312-0.24024-0.0781l-0.84766 0.27539c-0.15 0.0487-0.1775 0.0873-0.125 0.24609l1.5918 5.7656c0.0425 0.16125 0.09609 0.17375 0.24609 0.125l0.64648-0.20899c0.15-0.0488 0.1675-0.0836 0.125-0.24609l-0.88281-3.0254c-0.095-0.32125-0.33695-1.1012-0.43945-1.4199l0.01758-0.008c0.15625 0.30124 0.55977 1.0016 0.75977 1.2891l1.0703 1.5586c0.075 0.1125 0.09219 0.13469 0.24219 0.0859l0.54883-0.17578c0.15-0.0487 0.15148-0.0786 0.14648-0.21485l-0.01953-1.8984c-0.0062-0.34875-0.08992-1.1533-0.13867-1.4883l0.01758-0.006c0.1025 0.31875 0.36336 1.0932 0.47461 1.4082l1.041 2.9766c0.0525 0.15875 0.09609 0.17375 0.24609 0.125l0.7793-0.25195c0.15-0.0488 0.17625-0.0874 0.125-0.2461l-2.0586-5.5078c-0.095-0.23375-0.12539-0.27336-0.27539-0.22461zm37.701 0.40625c-0.0316 0.0105-0.0536 0.0399-0.0898 0.0918l-3.627 5.1016c-0.02 0.0325-0.069 0.0937-0.084 0.13867-0.0113 0.065 0.0354 0.0992 0.15039 0.13672l0.89062 0.29688c0.1325 0.0438 0.1586 0.0225 0.2461-0.125l0.83594-1.3086 1.5176 0.50586-0.0879 1.5566c-0.009 0.17375 0.002 0.20758 0.0898 0.23633l0.98633 0.32813c0.0887 0.0288 0.18367 0.042 0.20117-0.0117 0.0125-0.035 0.007-0.1136 0.01-0.15235l0.16407-6.2637c0-0.1175-0.006-0.15937-0.13868-0.20312l-0.91601-0.30469c-0.075-0.025-0.11688-0.0339-0.14844-0.0234zm-18.58 0.26953 0.35156 0.0156c0.6225 0.0275 1.158 0.15359 1.123 0.93359-0.035 0.79-0.57945 0.87836-1.2207 0.84961l-0.33203-0.0156 0.07812-1.7832zm18.805 0.75782 0.0176 0.006c-0.0787 0.385-0.1818 0.92882-0.2168 1.2988l-0.14258 1.6387-1.1641-0.38672 0.89258-1.3887c0.20625-0.3225 0.45453-0.80921 0.61328-1.168z" transform="matrix(.8 0 0 -.8 334.52 515.98)" stroke="#9ea2a3" stroke-width=".2" fill="#9ea2a3"/></g><path d="m431.48 466.09c-6.361-3.386-15.748-2.874-23.49 2.977l-0.007-2.05c5.648-4.005 14.365-6.152 20.937-3.277 0 0 0.659 0.116 0.659-0.469v-19.276s-0.046-0.941-0.496-0.941h-21.078v-1.48h23.466l0.009 24.516z" stroke="#fdb728" stroke-width="0.6" fill="none"/><path d="m91.85 64.102-0.0098 24.545h23.951s0.76132 0.22547 0.70507-0.95703c-0.0562-1.1825 0.0195-2.3242 0.0195-2.3242-2.7525 2.5012-8.1367 1.332-8.1367 1.332 0-0.5-0.74805-2.6367-0.74805-2.6367-0.84875-0.21875-0.65758-0.12844-1.3926-0.52344v4.3027h-3.7051l0.006-5.8477c-0.22-0.55125-0.45328-0.92047-0.92578-1.168-1.925-5.1038 1.0032-1.945 0.93945-4.9375h-2.9316v-3.5h2.9551v-2.2773h3.6309v2.2773h2.9512v3.5039h-2.9512l0.0312 2.6816c0.385 1.925 3.958 2.0697 5.498 2.3359 2.4788-0.02625 3.223-2.9029 4.7793-5.3066l0.0176-7.2637c-9.915 2.1088-18.522-0.25758-24.684-4.2363zm0.01563 31.496-0.01563 24.143c8.73-3.1612 15.169 1.7936 23.039-2.1914 8.4712-4.365 5.983-14.485 6.2617-21.951h-29.285z" transform="matrix(.8 0 0 -.8 334.52 515.98)" fill="#fff"/><path d="m91.85 64.102-0.0098 24.545h23.951s0.76132 0.22547 0.70507-0.95703c-0.0562-1.1825 0.0195-2.3242 0.0195-2.3242-2.7525 2.5012-8.1367 1.332-8.1367 1.332 0-0.5-0.74805-2.6367-0.74805-2.6367-0.84875-0.21875-0.65758-0.12844-1.3926-0.52344v4.3027h-3.7051l0.006-5.8477c-0.22-0.55125-0.45328-0.92047-0.92578-1.168-1.925-5.1038 1.0032-1.945 0.93945-4.9375h-2.9316v-3.5h2.9551v-2.2773h3.6309v2.2773h2.9512v3.5039h-2.9512l0.0312 2.6816c0.385 1.925 3.958 2.0697 5.498 2.3359 2.4788-0.02625 3.223-2.9029 4.7793-5.3066l0.0176-7.2637c-9.915 2.1088-18.522-0.25758-24.684-4.2363zm0.01563 31.496-0.01563 24.143c8.73-3.1612 15.169 1.7936 23.039-2.1914 8.4712-4.365 5.983-14.485 6.2617-21.951h-29.285zm0.39214 44.95c6.2725 0.1525 15.786 2.355 23.034 5.9425l2.7388-13.168s-11.501-5.5412-25.772-5.9338c-14.271 0.39251-25.772 5.9338-25.772 5.9338l2.7388 13.168c7.2475-3.5875 16.761-5.79 23.034-5.9425zm44.712-44.516s-6.435 21.961-26.552 34.486c4.6875 1.4588 7.6962 2.8962 7.6962 2.8962l-1.875 8.8625c25.764-12.668 31.61-42.086 31.61-42.086l-6.6425 2.01-4.2362-6.1688zm-89.432-0.12288s6.435 21.961 26.552 34.486c-4.6875 1.4588-7.6962 2.8962-7.6962 2.8962l1.875 8.8625c-25.764-12.668-31.61-42.086-31.61-42.086l6.6425 2.01 4.2362-6.1688zm44.257 60.72c35.776 0 64.779-29.004 64.779-64.779 0-35.776-29.003-64.78-64.779-64.78s-64.779 29.004-64.779 64.78c0 35.775 29.002 64.779 64.779 64.779z" transform="matrix(.8 0 0 -.8 334.52 515.98)" stroke="#fff" stroke-width=".75" fill="none"/><path d="m417.43 438.09-0.42-0.922c1.091-1.174 2.433-2.433 2.014-3.942-1.007-0.503-0.504-2.349-2.014-2.181-0.419-0.755-1.341-1.258-2.013-0.755-1.09-0.587-2.012 0.671-2.935 0.755-1.258 0.587 0.084 1.929-1.342 2.516-0.532 1.155 1.342 2.516 2.181 3.774-0.252 0.252-0.42 0.504-0.336 0.839 1.594 0.419 3.355 0.503 4.865-0.084" fill="#0c2340"/><path d="m417.43 438.09-0.42-0.922c1.091-1.174 2.433-2.433 2.014-3.942-1.007-0.503-0.504-2.349-2.014-2.181-0.419-0.755-1.341-1.258-2.013-0.755-1.09-0.587-2.012 0.671-2.935 0.755-1.258 0.587 0.084 1.929-1.342 2.516-0.532 1.155 1.342 2.516 2.181 3.774-0.252 0.252-0.42 0.504-0.336 0.839 1.594 0.419 3.355 0.503 4.865-0.084z" stroke="#0c2340" stroke-width=".315" fill="none"/><path d="m427.68 438.09-0.42-0.922c1.091-1.174 2.433-2.433 2.014-3.942-1.007-0.503-0.504-2.349-2.014-2.181-0.419-0.755-1.341-1.258-2.012-0.755-1.091-0.587-2.013 0.671-2.936 0.755-1.258 0.587 0.084 1.929-1.342 2.516-0.532 1.155 1.342 2.516 2.181 3.774-0.252 0.252-0.42 0.504-0.336 0.839 1.594 0.419 3.355 0.503 4.865-0.084" fill="#0c2340"/><path d="m427.68 438.09-0.42-0.922c1.091-1.174 2.433-2.433 2.014-3.942-1.007-0.503-0.504-2.349-2.014-2.181-0.419-0.755-1.341-1.258-2.012-0.755-1.091-0.587-2.013 0.671-2.936 0.755-1.258 0.587 0.084 1.929-1.342 2.516-0.532 1.155 1.342 2.516 2.181 3.774-0.252 0.252-0.42 0.504-0.336 0.839 1.594 0.419 3.355 0.503 4.865-0.084z" stroke="#0c2340" stroke-width=".315" fill="none"/><path d="m422.4 429.35-0.419-0.923c1.09-1.174 2.432-2.432 2.013-3.942-1.007-0.503-0.504-2.348-2.013-2.18-0.42-0.755-1.342-1.259-2.013-0.755-1.091-0.587-2.013 0.671-2.936 0.755-1.258 0.587 0.084 1.929-1.342 2.516-0.532 1.155 1.342 2.516 2.181 3.774-0.252 0.252-0.42 0.503-0.336 0.839 1.594 0.419 3.355 0.503 4.865-0.084" fill="#0c2340"/><path d="m422.4 429.35-0.419-0.923c1.09-1.174 2.432-2.432 2.013-3.942-1.007-0.503-0.504-2.348-2.013-2.18-0.42-0.755-1.342-1.259-2.013-0.755-1.091-0.587-2.013 0.671-2.936 0.755-1.258 0.587 0.084 1.929-1.342 2.516-0.532 1.155 1.342 2.516 2.181 3.774-0.252 0.252-0.42 0.503-0.336 0.839 1.594 0.419 3.355 0.503 4.865-0.084z" stroke="#0c2340" stroke-width=".315" fill="none"/><g><path d="m99.297 98.541c-1.57 2.5925-1.8312 4.6097-2.5137 6.6797 0.31375 0.315 0.62812 0.63157 1.3594-0.17968l1.1543-6.5zm12.809 0c-1.57 2.5925-1.8312 4.6097-2.5137 6.6797 0.31375 0.315 0.62812 0.63157 1.3594-0.17968l1.1543-6.5zm-11.826 0.22266c-0.355 2.3075-1.8373 5.5645-1.1973 7.5195 0.315 0.21 0.74117 0.40657 0.95117-0.11718l0.2461-7.4023zm12.807 0c-0.355 2.3075-1.8353 5.5645-1.1953 7.5195 0.31501 0.21 0.73922 0.40657 0.94922-0.11718l0.2461-7.4023zm-12.109 0.0625-0.10351 7.3398 0.3125 0.41992c0.42 0 0.73382-0.00094 1.0488-0.21094 0.21-2.6212-0.20907-5.3476-1.2578-7.5488zm12.807 0-0.10351 7.3398 0.31445 0.41992c0.42 0 0.73383-0.00094 1.0488-0.21094 0.21-2.6212-0.21102-5.3476-1.2598-7.5488zm-15.428 0.10547c-1.0488 0.94375-3.2502 2.9341-2.0977 4.0879l2.0977-4.0879zm12.807 0c-1.0475 0.94375-3.2482 2.9341-2.0957 4.0879l2.0957-4.0879zm-9.2422 0.20898c0.62875 2.0975 1.1528 4.194 1.2578 6.3965 0.41875 0.10375 0.73336-0.24555 0.94336-0.56055 0.315-2.3062-1.0487-3.9484-2.2012-5.8359zm0.94336 0 2.0977 4.0898c0.18375-1.9238-0.51641-2.5911-2.0977-4.0898zm11.865 0c0.62875 2.0975 1.1528 4.194 1.2578 6.3965 0.41875 0.10375 0.73336-0.24555 0.94336-0.56055 0.315-2.3062-1.0487-3.9484-2.2012-5.8359zm0.94336 0 2.0957 4.0898c0.18375-1.9238-0.51445-2.5911-2.0957-4.0898zm-10.168 10.336c-1.57 2.5925-1.8312 4.6097-2.5137 6.6797 0.315 0.315 0.62813 0.63156 1.3594-0.17969l1.1543-6.5zm0.98242 0.22266c-0.35375 2.3075-1.8373 5.5645-1.1973 7.5195 0.315 0.21 0.74117 0.40656 0.95117-0.11719l0.2461-7.4023zm0.69726 0.0625-0.10351 7.3398 0.3125 0.41992c0.42 0 0.73383-0.00093 1.0488-0.21093 0.20875-2.6212-0.20907-5.3476-1.2578-7.5488zm-2.6211 0.10547c-1.0488 0.94375-3.2502 2.9361-2.0977 4.0898l2.0977-4.0898zm3.5644 0.20898c0.62875 2.0975 1.1528 4.194 1.2578 6.3965 0.42 0.10375 0.73335-0.24555 0.94335-0.56055 0.315-2.3062-1.0487-3.9484-2.2012-5.8359zm0.94336 0 2.0977 4.0898c0.18375-1.9238-0.51641-2.5911-2.0977-4.0898z" transform="matrix(.8 0 0 -.8 334.52 515.98)" fill="#ed174c"/><path d="m89.766 27.988c-0.25766-0.07114-0.33703 0.50766-0.36328 0.29492 0.06 0.48625 0.0048 6.3373-0.06641 6.0898-0.829-0.816-2.378-4.444-4.086-5.814-0.51125 0.08375 1.0734 5.5888 1.4297 6.9688 0.16625 0.2025-4.2827-5.3466-4.3789-4.4141 0.3475 0.3575 2.4073 5.6463 2.1523 5.4863-2.655-3.09-6.4975-4.8783-6.8125-4.3633 1.4738 1.7275 3.3226 3.821 4.8926 5.2598 0.33 0.125-7.4502-2.0643-8.0977-2.2793 0.6475 0.215-3.683-0.6475 6.3945 4.3438-2.335-0.46875-6.3228 0.7243-9.6328 1.0918-1.0812 0.71625 10.42 1.2925 10.039 1.3438-5.6 2.1262-6.9952 3.4398-7.6777 3.6348-0.67875 0.985 6.872-1.3239 9.707-1.6914-1.9738 1.6288-3.4825 3.1561-5.3125 4.9648 0.54375 1.14 5.782-3.0811 7.5508-3.5586 0.2125-0.18375-3.842 6.9286-4.2207 7.4023 0.1075 1.6 5.0937-4.7589 6.3574-6.5977-0.69375 1.705-1.2831 5.8307-1.0469 7.377 1.4612-1.2525 2.7643-5.2667 3.2793-6.793 0.04125-0.2375 1.4479 6.1699 1.4629 6.6699 0.8075 0.26625 0.86641-5.2503 1.3789-6.7578 1.1438 0.81125 2.2768 4.4222 4.2168 5.9922 0.9575-0.66-1.388-4.9568-1.543-6.5605 1.775 2.175 5.2646 5.5447 5.6621 5.9922 1.8 0.72875-1.9945-5.6932-2.7383-6.9395 7.3675 6.255 6.0308 4.2198 6.582 4.5586-0.55125-0.33875-3.789-4.6763-4.834-5.7676 2.4475 0.86375 9.682 4.9298 8.5508 2.8223-0.69375-0.2375-7.4644-4.6695-7.0469-4.6133 8.5138 1.495 8.2241 0.25617 8.9941 0.32617-0.77-0.07-0.70023-0.8125-8.5215-2.2812 2.305-0.59125 7.7812-2.6347 6.7012-2.8672-2.0562 0.33875-5.2951 0.42226-7.9238 1.1973 1.4275-1.0712 4.3011-3.2412 4.6836-4.125-1.8075-0.1925-5.5245 2.0634-7.002 2.4922-0.29625 0.14875 4.3797-5.315 4.8672-5.6875-1.1075-0.76625-5.4562 3.79-6.875 4.875 0.44125-1.635 2.013-5.1737 1.9043-6.0137-1.4488 1.0775-2.5957 3.3745-3.9395 4.8145-0.13875-1.5362 1.0978-6.5079 0.13281-6.1504-0.14375 0.47-1.8031 3.5322-2.6719 5.8359-1.1904-5.3016-1.8172-6.4671-2.1484-6.5586zm2.0801 30.652-0.0078 2.5625c7.06 5.0062 17.955 7.6895 26.17 4.0957 0 0 0.82422-0.14531 0.82422 0.58594v24.096s-0.0566 1.1758-0.61914 1.1758h-26.348v1.8496h29.332l0.0117-30.645c-7.9512 4.2325-19.686 3.593-29.363-3.7207zm10.07 86.424c-1.665 0-2.5117 1.172-2.5117 3.377 0 2.25 0.85468 3.3105 2.4922 3.3105 0.7625 0 1.8594-0.33336 1.8594-0.72461v-2.5859c0-0.1675-0.0378-0.19532-0.19531-0.19532h-1.6172c-0.1575 0-0.19531 0.0278-0.19531 0.19532v0.61328c0 0.1675 0.0378 0.19531 0.19531 0.19531h0.69726v1.3496c-0.0837 0.0362-0.32617 0.14844-0.66992 0.14844-1.005 0-1.2461-0.9211-1.2461-2.3711 0-1.4238 0.30711-2.3086 1.2559-2.3086 0.6325 0 1.154 0.41016 1.209 0.41016 0.0375 0 0.0741-0.0375 0.10157-0.0937l0.30664-0.61329c0.0375-0.0737 0.0469-0.11117 0.0469-0.13867 0-0.15875-0.89226-0.56836-1.7285-0.56836zm-19.367 0.15821c-0.15875 0-0.16758 0.0206-0.20508 0.14062l-1.832 5.9883c-0.0088 0.0375-0.03711 0.11196-0.03711 0.15821 0.0087 0.065 0.0643 0.084 0.18555 0.084h0.93945c0.13875 0 0.15781-0.0278 0.19531-0.19531l0.38086-1.5059h1.6016l0.4082 1.5059c0.04625 0.1675 0.06445 0.19531 0.1582 0.19531h1.041c0.0925 0 0.1875-0.0192 0.1875-0.0742 0-0.0375-0.02836-0.11094-0.03711-0.14844l-1.8242-5.998c-0.0375-0.11125-0.05531-0.15039-0.19531-0.15039h-0.9668zm4.6992 0c-0.1575 0-0.19336 0.0278-0.19336 0.19531l-0.26172 5.9805c-0.0088 0.1675 0.03781 0.19531 0.19531 0.19531h0.67969c0.15875 0 0.18656-0.0278 0.19531-0.19531l0.09375-3.1524c0.0088-0.335 0.01758-1.1533 0.01758-1.4883h0.01953c0.055 0.335 0.22172 1.1252 0.32422 1.459l0.54102 1.8144c0.03625 0.13 0.04563 0.1582 0.20312 0.1582h0.57812c0.1575 0 0.16688-0.0282 0.20312-0.1582l0.56836-1.8144c0.1025-0.33375 0.26992-1.124 0.32617-1.459h0.01758c0 0.335 0.0088 1.1533 0.01758 1.4883l0.07617 3.1524c0 0.1675 0.03586 0.19531 0.19336 0.19531h0.82031c0.1575 0 0.19531-0.0278 0.19531-0.19531l-0.26172-5.877c-0.01875-0.25125-0.03656-0.29882-0.19531-0.29882h-0.89258c-0.1675 0-0.17641 0.0204-0.22266 0.15039l-0.79102 2.3438c-0.20375 0.61375-0.24062 0.75148-0.29687 1.1152h-0.01953c-0.055-0.36375-0.15805-0.74398-0.2793-1.1152l-0.75391-2.3438c-0.04625-0.14-0.05438-0.15039-0.20312-0.15039h-0.89453zm6.8145 0c-0.1675 0-0.20508 0.0278-0.20508 0.19531v5.9805c0 0.15875 0.03586 0.19531 0.19336 0.19531h1.4238c1.655 0 2.7344-0.54875 2.7344-3.2188 0-2.5762-0.93078-3.1523-2.707-3.1523h-1.4395zm-11.123 0.93164h0.01758c0.04625 0.39 0.12133 0.93828 0.20508 1.3008l0.38281 1.5996h-1.2285l0.4082-1.5996c0.0925-0.37125 0.17734-0.91078 0.21484-1.3008zm12.174 0.0742h0.33398c1.0425 0 1.4414 0.46265 1.4414 2.1289 0 1.775-0.39016 2.2324-1.4414 2.2324h-0.33398v-4.3613z" transform="matrix(.8 0 0 -.8 334.52 515.98)" fill="#fdb728"/><path d="m414.61 483.63c-1.144-2.099-4.505-3.587-7.007-3.592-2.415 0.048-5.782 1.504-7.047 3.542 1.366 1.879 4.279 3.392 6.98 3.482 2.562-0.08 5.708-1.212 7.074-3.432" fill="#a90533"/></g><path d="m414.61 483.63c-1.144-2.099-4.505-3.587-7.007-3.592-2.415 0.048-5.782 1.504-7.047 3.542 1.366 1.879 4.279 3.392 6.98 3.482 2.562-0.08 5.708-1.212 7.074-3.432z" stroke="#a90533" stroke-width="0.6" fill="none"/><path d="m95.543 37.639c-0.90125 0-1.707 0.46719-1.707 1.5859 0 0.64375 0.28828 0.91938 0.67578 1.2031 0.57625 0.42375 1.584 0.55219 1.584 1.2422 0 0.4825-0.26422 0.71484-0.69922 0.71484-0.6675 0-1.2428-0.3418-1.2891-0.3418-0.03125 0-0.06969 0.03063-0.08594 0.07813l-0.17773 0.51172c-0.01625 0.04625-0.03906 0.10125-0.03906 0.125 0 0.125 0.83055 0.46484 1.623 0.46484 0.97875 0 1.6777-0.65242 1.6777-1.6387 0-0.59-0.27367-0.99992-0.66992-1.2949-0.6825-0.505-1.5898-0.61508-1.5898-1.2051 0-0.46625 0.37102-0.60547 0.72852-0.60547 0.55875 0 1.0404 0.3418 1.0879 0.3418 0.03125 0 0.06219-0.03062 0.08594-0.07812l0.25586-0.51172c0.03125-0.06125 0.03906-0.09344 0.03906-0.11719 0-0.1325-0.7625-0.47461-1.5-0.47461zm-9.1992 0.13281c-0.1325 0-0.16406 0.02336-0.16406 0.16211v0.41992c0 0.14 0.03156 0.16406 0.16406 0.16406h0.42578v3.8281h-0.42578c-0.1325 0-0.16406 0.02406-0.16406 0.16406v0.41797c0 0.14 0.03156 0.16211 0.16406 0.16211h1.9023c0.13125 0 0.16211-0.02211 0.16211-0.16211v-0.41797c0-0.14-0.03086-0.16406-0.16211-0.16406h-0.42774v-3.8281h0.42774c0.13125 0 0.16211-0.02406 0.16211-0.16406v-0.41992c0-0.13875-0.03086-0.16211-0.16211-0.16211h-1.9023zm3.209 0c-0.1325 0-0.16406 0.02336-0.16406 0.16211v4.9941c0 0.14 0.03156 0.16211 0.16406 0.16211h0.7207c0.1325 0 0.16406-0.02211 0.16406-0.16211v-2.166h1.4746v2.166c0 0.14 0.03156 0.16211 0.16406 0.16211h0.72266c0.13125 0 0.16211-0.02211 0.16211-0.16211v-4.9941c0-0.13875-0.03086-0.16211-0.16211-0.16211h-0.72266c-0.1325 0-0.16406 0.02336-0.16406 0.16211v1.9902h-1.4746v-1.9902c0-0.13875-0.03156-0.16211-0.16406-0.16211h-0.7207z" transform="matrix(.8 0 0 -.8 334.52 515.98)" fill="#fff"/></g></g></svg>
